<?xml version="1.0" encoding="UTF-8" standalone="no"?>
<!-- Created with Inkscape (http://www.inkscape.org/) -->

<svg
   xmlns:ns0="http://www.iki.fi/pav/software/textext/"
   xmlns:dc="http://purl.org/dc/elements/1.1/"
   xmlns:cc="http://creativecommons.org/ns#"
   xmlns:rdf="http://www.w3.org/1999/02/22-rdf-syntax-ns#"
   xmlns:svg="http://www.w3.org/2000/svg"
   xmlns="http://www.w3.org/2000/svg"
   xmlns:xlink="http://www.w3.org/1999/xlink"
   xmlns:sodipodi="http://sodipodi.sourceforge.net/DTD/sodipodi-0.dtd"
   xmlns:inkscape="http://www.inkscape.org/namespaces/inkscape"
   width="533.57141"
   height="296.42856"
   id="svg2"
   version="1.1"
   inkscape:version="0.48.3.1 r9886"
   sodipodi:docname="Tabla2.svg">
  <sodipodi:namedview
     id="base"
     pagecolor="#ffffff"
     bordercolor="#666666"
     borderopacity="1.0"
     inkscape:pageopacity="0.0"
     inkscape:pageshadow="2"
     inkscape:zoom="0.98994949"
     inkscape:cx="410.23042"
     inkscape:cy="93.352133"
     inkscape:document-units="px"
     inkscape:current-layer="layer1"
     showgrid="false"
     inkscape:window-width="1366"
     inkscape:window-height="744"
     inkscape:window-x="0"
     inkscape:window-y="24"
     inkscape:window-maximized="1"
     fit-margin-top="0"
     fit-margin-left="0"
     fit-margin-right="0"
     fit-margin-bottom="0" />
  <defs
     id="defs4" />
  <metadata
     id="metadata7">
    <rdf:RDF>
      <cc:Work
         rdf:about="">
        <dc:format>image/svg+xml</dc:format>
        <dc:type
           rdf:resource="http://purl.org/dc/dcmitype/StillImage" />
        <dc:title />
      </cc:Work>
    </rdf:RDF>
  </metadata>
  <g
     transform="translate(60.230418,-43.57143)"
     inkscape:label="Capa 1"
     inkscape:groupmode="layer"
     id="layer1">
    <g
       id="g3854"
       transform="matrix(1.9124424,0,0,1.9124424,-492.4424,-195.48387)"
       ns0:preamble="/home/david/Documentos/preambleinkscape.ini"
       ns0:text="\\renewcommand{\\arraystretch}{2}\n\\begin{tabular}{ccc}\n  \\topline\n  \\headcol \\head{Clase de Simetr\\\'ia} &amp; \\head{Asimetr\\\'ia $\\Delta f$} \\\\\n  \\midline\n  $T$  &amp; $ \\frac{4 \\gamma k M_{s}\\lambda_{\\text{DM}}}{2\\pi} \\cos\\phi_{\\mathbf{k}}\\cos\\phi_{M}$ \\\\\n  \\rowcol $C_{nv}$  &amp; $-\\frac{4 \\gamma k M_{s}\\lambda_{\\text{DM}}}{2\\pi} \\sin\\phi_{\\mathbf{k}}\\cos\\phi_{M}$ \\\\\n $D_{\\text{2d}}$ &amp;  $-\\frac{4 \\gamma k M_{s}\\lambda_{\\text{DM}}}{2\\pi} \\cos\\phi_{\\mathbf{k}}\\cos\\phi_{M}$ \\\\\n   \\rowcol $D_{n}$ &amp; $\\frac{4 \\gamma k M_{s}\\lambda_{\\text{DM}}^{(1)}}{2\\pi} \\cos\\phi_{\\mathbf{k}}\\cos\\phi_{M}$ \\\\\n   $C_{n}$  &amp; $-\\frac{4 \\gamma k M_{s}}{2\\pi} ( \\lambda_{\\text{DM}}^{(1)}\\sin\\phi_{\\mathbf{k}} - \\lambda_{\\text{DM}}^{(2)}\\cos\\phi_{\\mathbf{k}})\\cos\\phi_{M}$ \\\\\n  \\bottomlinec\n\\end{tabular}">
      <defs
         id="defs3856">
        <g
           id="g3858">
          <symbol
             id="textext-b4c6422a-0"
             overflow="visible">
            <path
               id="path3861"
               d="M 6.234375 -5.296875 L 6.234375 -5.953125 C 5.625 -6.671875 4.71875 -7.078125 3.78125 -7.078125 C 1.71875 -7.078125 0.53125 -5.625 0.53125 -3.484375 C 0.53125 -1.359375 1.71875 0.09375 3.78125 0.09375 C 4.59375 0.09375 5.390625 -0.125 6.078125 -0.5625 L 6.078125 -1.109375 C 5.390625 -0.6875 4.59375 -0.453125 3.78125 -0.453125 C 2.25 -0.453125 1.671875 -1.796875 1.671875 -3.484375 C 1.671875 -5.1875 2.25 -6.515625 3.78125 -6.515625 C 4.75 -6.515625 5.65625 -6.078125 6.234375 -5.296875 Z M 6.234375 -5.296875 "
               style="stroke:none;" />
          </symbol>
          <symbol
             id="textext-b4c6422a-1"
             overflow="visible">
            <path
               id="path3864"
               d="M 2.65625 -0.296875 L 2.65625 -0.671875 C 2.484375 -0.546875 2.265625 -0.453125 2.046875 -0.453125 C 1.734375 -0.453125 1.65625 -0.875 1.65625 -1.25 L 1.65625 -6.984375 L 0.71875 -6.984375 L 0.71875 -1.25 C 0.71875 -0.578125 1 0.09375 1.59375 0.09375 C 1.984375 0.09375 2.359375 -0.0625 2.65625 -0.296875 Z M 2.65625 -0.296875 "
               style="stroke:none;" />
          </symbol>
          <symbol
             id="textext-b4c6422a-2"
             overflow="visible">
            <path
               id="path3867"
               d="M 3.453125 -0.453125 L 3.453125 -0.921875 C 3.1875 -0.640625 2.84375 -0.421875 2.453125 -0.421875 C 1.90625 -0.421875 1.453125 -0.84375 1.453125 -1.390625 C 1.453125 -1.9375 1.90625 -2.359375 2.453125 -2.359375 C 2.796875 -2.359375 3.140625 -2.28125 3.453125 -2.140625 L 3.453125 -2.609375 C 3.078125 -2.78125 2.65625 -2.875 2.25 -2.875 C 1.171875 -2.875 0.40625 -2.375 0.40625 -1.390625 C 0.40625 -0.4375 1.09375 0.09375 2.078125 0.09375 C 2.59375 0.09375 3.0625 -0.140625 3.453125 -0.453125 Z M 4.6875 0 L 4.6875 -2.796875 C 4.6875 -3.765625 3.984375 -4.578125 3.046875 -4.578125 C 2.34375 -4.578125 1.671875 -4.359375 1.046875 -4.03125 L 1.046875 -3.65625 C 1.5625 -3.890625 2.109375 -4.03125 2.671875 -4.03125 C 3.296875 -4.03125 3.75 -3.453125 3.75 -2.796875 L 3.75 0 Z M 4.6875 0 "
               style="stroke:none;" />
          </symbol>
          <symbol
             id="textext-b4c6422a-3"
             overflow="visible">
            <path
               id="path3870"
               d="M 4.203125 -1.328125 C 4.203125 -2.1875 3.265625 -2.59375 2.328125 -2.75 C 1.84375 -2.828125 1.3125 -3 1.3125 -3.453125 C 1.3125 -3.875 1.796875 -4.0625 2.265625 -4.0625 C 2.84375 -4.0625 3.4375 -3.921875 3.96875 -3.671875 L 3.96875 -4.1875 C 3.4375 -4.453125 2.84375 -4.578125 2.265625 -4.578125 C 1.3125 -4.578125 0.40625 -4.0625 0.40625 -3.203125 C 0.40625 -2.40625 1.328125 -2.0625 2.1875 -1.90625 C 2.734375 -1.828125 3.296875 -1.578125 3.296875 -1.078125 C 3.296875 -0.625 2.78125 -0.421875 2.265625 -0.421875 C 1.59375 -0.421875 0.9375 -0.5625 0.3125 -0.8125 L 0.3125 -0.296875 C 0.9375 -0.046875 1.59375 0.09375 2.265625 0.09375 C 3.25 0.09375 4.203125 -0.421875 4.203125 -1.328125 Z M 4.203125 -1.328125 "
               style="stroke:none;" />
          </symbol>
          <symbol
             id="textext-b4c6422a-4"
             overflow="visible">
            <path
               id="path3873"
               d="M 4.78125 -2.140625 L 4.78125 -2.25 C 4.78125 -3.65625 3.921875 -4.578125 2.640625 -4.578125 C 1.359375 -4.578125 0.5 -3.65625 0.5 -2.25 C 0.5 -0.84375 1.359375 0.09375 2.640625 0.09375 C 3.1875 0.09375 3.71875 -0.046875 4.1875 -0.328125 L 4.1875 -0.84375 C 3.65625 -0.5625 3.234375 -0.453125 2.640625 -0.453125 C 1.859375 -0.453125 1.53125 -1.359375 1.53125 -2.25 C 1.53125 -3.34375 1.96875 -4.0625 2.640625 -4.0625 C 3.3125 -4.0625 3.734375 -3.359375 3.734375 -2.609375 L 1.828125 -2.609375 L 1.828125 -2.140625 Z M 4.78125 -2.140625 "
               style="stroke:none;" />
          </symbol>
          <symbol
             id="textext-b4c6422a-5"
             overflow="visible">
            <path
               id="path3876"
               d="M 4.78125 0 L 4.78125 -6.984375 L 3.84375 -6.984375 L 3.84375 0 Z M 3.546875 -0.453125 L 3.546875 -0.921875 C 3.265625 -0.640625 2.9375 -0.421875 2.546875 -0.421875 C 1.78125 -0.421875 1.53125 -1.359375 1.53125 -2.25 C 1.53125 -3.125 1.78125 -4.0625 2.546875 -4.0625 C 2.890625 -4.0625 3.234375 -3.984375 3.546875 -3.84375 L 3.546875 -4.3125 C 3.15625 -4.484375 2.75 -4.578125 2.328125 -4.578125 C 1.09375 -4.578125 0.5 -3.59375 0.5 -2.25 C 0.5 -0.921875 0.984375 0.09375 2.171875 0.09375 C 2.6875 0.09375 3.15625 -0.140625 3.546875 -0.453125 Z M 3.546875 -0.453125 "
               style="stroke:none;" />
          </symbol>
          <symbol
             id="textext-b4c6422a-6"
             overflow="visible">
            <path
               id="path3879"
               d="M 6 -2.078125 C 6 -3.34375 4.703125 -4.0625 3.375 -4.328125 C 2.546875 -4.484375 1.609375 -4.671875 1.609375 -5.4375 C 1.609375 -6.1875 2.4375 -6.578125 3.265625 -6.578125 C 4.0625 -6.578125 4.859375 -6.375 5.53125 -5.90625 L 5.53125 -6.375 C 4.859375 -6.84375 4.078125 -7.140625 3.265625 -7.140625 C 1.9375 -7.140625 0.671875 -6.40625 0.671875 -5.1875 C 0.671875 -4.03125 1.921875 -3.453125 3.15625 -3.203125 C 4.0625 -3.03125 5.046875 -2.6875 5.046875 -1.8125 C 5.046875 -0.953125 4.1875 -0.40625 3.265625 -0.40625 C 2.3125 -0.40625 1.359375 -0.609375 0.53125 -1.078125 L 0.53125 -0.59375 C 1.375 -0.125 2.296875 0.15625 3.265625 0.15625 C 4.6875 0.15625 6 -0.734375 6 -2.078125 Z M 6 -2.078125 "
               style="stroke:none;" />
          </symbol>
          <symbol
             id="textext-b4c6422a-7"
             overflow="visible">
            <path
               id="path3882"
               d="M 2.625 -0.296875 L 2.625 -0.671875 C 2.4375 -0.546875 2.234375 -0.453125 2.015625 -0.453125 C 1.6875 -0.453125 1.609375 -0.875 1.609375 -1.25 L 1.609375 -4.484375 L 0.671875 -4.484375 L 0.671875 -1.25 C 0.671875 -0.578125 0.953125 0.09375 1.5625 0.09375 C 1.9375 0.09375 2.3125 -0.0625 2.625 -0.296875 Z M 1.71875 -6.0625 C 1.71875 -6.375 1.453125 -6.625 1.140625 -6.625 C 0.84375 -6.625 0.578125 -6.375 0.578125 -6.0625 C 0.578125 -5.75 0.84375 -5.5 1.140625 -5.5 C 1.453125 -5.5 1.71875 -5.75 1.71875 -6.0625 Z M 1.71875 -6.0625 "
               style="stroke:none;" />
          </symbol>
          <symbol
             id="textext-b4c6422a-8"
             overflow="visible">
            <path
               id="path3885"
               d="M 1.65625 0 L 1.65625 -4.484375 L 0.71875 -4.484375 L 0.71875 0 Z M 4.28125 0 L 4.28125 -3.234375 C 4.28125 -3.9375 3.875 -4.578125 3.234375 -4.578125 C 2.75 -4.578125 2.3125 -4.34375 1.9375 -4.03125 L 1.9375 -3.65625 C 2.1875 -3.875 2.46875 -4.03125 2.796875 -4.03125 C 3.15625 -4.03125 3.34375 -3.640625 3.34375 -3.234375 L 3.34375 0 Z M 6.921875 0 L 6.921875 -3.234375 C 6.921875 -3.9375 6.515625 -4.578125 5.859375 -4.578125 C 5.28125 -4.578125 4.734375 -4.3125 4.390625 -3.84375 L 4.390625 -3.46875 C 4.640625 -3.796875 5.015625 -4.03125 5.421875 -4.03125 C 5.78125 -4.03125 5.984375 -3.640625 5.984375 -3.234375 L 5.984375 0 Z M 6.921875 0 "
               style="stroke:none;" />
          </symbol>
          <symbol
             id="textext-b4c6422a-9"
             overflow="visible">
            <path
               id="path3888"
               d="M 2.984375 -0.34375 L 2.984375 -0.71875 C 2.796875 -0.5625 2.5625 -0.453125 2.3125 -0.453125 C 1.96875 -0.453125 1.859375 -0.859375 1.859375 -1.25 L 1.859375 -3.96875 L 2.984375 -3.96875 L 2.984375 -4.484375 L 1.859375 -4.484375 L 1.859375 -5.984375 L 1.296875 -5.984375 C 1.296875 -5.203125 0.953125 -4.4375 0.265625 -4.4375 L 0.265625 -3.96875 L 0.921875 -3.96875 L 0.921875 -1.25 C 0.921875 -0.5625 1.25 0.09375 1.859375 0.09375 C 2.265625 0.09375 2.65625 -0.09375 2.984375 -0.34375 Z M 2.984375 -0.34375 "
               style="stroke:none;" />
          </symbol>
          <symbol
             id="textext-b4c6422a-10"
             overflow="visible">
            <path
               id="path3891"
               d="M 1.65625 0 L 1.65625 -4.484375 L 0.71875 -4.484375 L 0.71875 0 Z M 3.5625 -3.734375 L 3.5625 -4.484375 C 3.46875 -4.53125 3.359375 -4.5625 3.234375 -4.5625 C 2.75 -4.5625 2.296875 -4.28125 1.9375 -3.9375 L 1.9375 -3.421875 C 2.25 -3.671875 2.625 -3.84375 3.03125 -3.84375 C 3.203125 -3.84375 3.40625 -3.8125 3.5625 -3.734375 Z M 3.5625 -3.734375 "
               style="stroke:none;" />
          </symbol>
          <symbol
             id="textext-b4c6422a-11"
             overflow="visible">
            <path
               id="path3894"
               d="M 3.625 -6.984375 L 2.546875 -6.984375 C 2.546875 -6.328125 2.375 -5.703125 2.078125 -5.140625 L 2.59375 -5.140625 C 3.109375 -5.65625 3.625 -6.234375 3.625 -6.984375 Z M 3.625 -6.984375 "
               style="stroke:none;" />
          </symbol>
          <symbol
             id="textext-b4c6422a-12"
             overflow="visible">
            <path
               id="path3897"
               d="M 2.625 -0.296875 L 2.625 -0.671875 C 2.4375 -0.546875 2.234375 -0.453125 2.015625 -0.453125 C 1.6875 -0.453125 1.609375 -0.875 1.609375 -1.25 L 1.609375 -4.484375 L 0.671875 -4.484375 L 0.671875 -1.25 C 0.671875 -0.578125 0.953125 0.09375 1.5625 0.09375 C 1.9375 0.09375 2.3125 -0.0625 2.625 -0.296875 Z M 2.625 -0.296875 "
               style="stroke:none;" />
          </symbol>
          <symbol
             id="textext-b4c6422a-13"
             overflow="visible">
            <path
               id="path3900"
               d="M 6.3125 0 L 3.75 -6.984375 L 2.71875 -6.984375 L 0.09375 0 L 0.6875 0 L 1.609375 -2.4375 L 4.375 -2.4375 L 5.28125 0 Z M 4.171875 -3 L 1.8125 -3 L 3.015625 -6.171875 Z M 4.171875 -3 "
               style="stroke:none;" />
          </symbol>
          <symbol
             id="textext-b4c6422a-14"
             overflow="visible">
            <path
               id="path3903"
               d="M 4.40625 -6.953125 C 4.34375 -7.09375 4.3125 -7.140625 4.140625 -7.140625 C 3.984375 -7.140625 3.953125 -7.09375 3.890625 -6.953125 L 0.515625 -0.203125 C 0.46875 -0.109375 0.46875 -0.09375 0.46875 -0.078125 C 0.46875 0 0.53125 0 0.6875 0 L 7.609375 0 C 7.765625 0 7.828125 0 7.828125 -0.078125 C 7.828125 -0.09375 7.828125 -0.109375 7.78125 -0.203125 Z M 3.828125 -6.140625 L 6.515625 -0.75 L 1.140625 -0.75 Z M 3.828125 -6.140625 "
               style="stroke:none;" />
          </symbol>
          <symbol
             id="textext-b4c6422a-15"
             overflow="visible">
            <path
               id="path3906"
               d="M 1.171875 -2.171875 C 1.171875 -3.796875 1.984375 -4.21875 2.515625 -4.21875 C 2.609375 -4.21875 3.234375 -4.203125 3.578125 -3.84375 C 3.171875 -3.8125 3.109375 -3.515625 3.109375 -3.390625 C 3.109375 -3.125 3.296875 -2.9375 3.5625 -2.9375 C 3.828125 -2.9375 4.03125 -3.09375 4.03125 -3.40625 C 4.03125 -4.078125 3.265625 -4.46875 2.5 -4.46875 C 1.25 -4.46875 0.34375 -3.390625 0.34375 -2.15625 C 0.34375 -0.875 1.328125 0.109375 2.484375 0.109375 C 3.8125 0.109375 4.140625 -1.09375 4.140625 -1.1875 C 4.140625 -1.28125 4.03125 -1.28125 4 -1.28125 C 3.921875 -1.28125 3.890625 -1.25 3.875 -1.1875 C 3.59375 -0.265625 2.9375 -0.140625 2.578125 -0.140625 C 2.046875 -0.140625 1.171875 -0.5625 1.171875 -2.171875 Z M 1.171875 -2.171875 "
               style="stroke:none;" />
          </symbol>
          <symbol
             id="textext-b4c6422a-16"
             overflow="visible">
            <path
               id="path3909"
               d="M 4.6875 -2.140625 C 4.6875 -3.40625 3.703125 -4.46875 2.5 -4.46875 C 1.25 -4.46875 0.28125 -3.375 0.28125 -2.140625 C 0.28125 -0.84375 1.3125 0.109375 2.484375 0.109375 C 3.6875 0.109375 4.6875 -0.875 4.6875 -2.140625 Z M 2.5 -0.140625 C 2.0625 -0.140625 1.625 -0.34375 1.359375 -0.8125 C 1.109375 -1.25 1.109375 -1.859375 1.109375 -2.21875 C 1.109375 -2.609375 1.109375 -3.140625 1.34375 -3.578125 C 1.609375 -4.03125 2.078125 -4.25 2.484375 -4.25 C 2.921875 -4.25 3.34375 -4.03125 3.609375 -3.59375 C 3.875 -3.171875 3.875 -2.59375 3.875 -2.21875 C 3.875 -1.859375 3.875 -1.3125 3.65625 -0.875 C 3.421875 -0.421875 2.984375 -0.140625 2.5 -0.140625 Z M 2.5 -0.140625 "
               style="stroke:none;" />
          </symbol>
          <symbol
             id="textext-b4c6422a-17"
             overflow="visible">
            <path
               id="path3912"
               d="M 2.078125 -1.9375 C 2.296875 -1.890625 3.109375 -1.734375 3.109375 -1.015625 C 3.109375 -0.515625 2.765625 -0.109375 1.984375 -0.109375 C 1.140625 -0.109375 0.78125 -0.671875 0.59375 -1.53125 C 0.5625 -1.65625 0.5625 -1.6875 0.453125 -1.6875 C 0.328125 -1.6875 0.328125 -1.625 0.328125 -1.453125 L 0.328125 -0.125 C 0.328125 0.046875 0.328125 0.109375 0.4375 0.109375 C 0.484375 0.109375 0.5 0.09375 0.6875 -0.09375 C 0.703125 -0.109375 0.703125 -0.125 0.890625 -0.3125 C 1.328125 0.09375 1.78125 0.109375 1.984375 0.109375 C 3.125 0.109375 3.59375 -0.5625 3.59375 -1.28125 C 3.59375 -1.796875 3.296875 -2.109375 3.171875 -2.21875 C 2.84375 -2.546875 2.453125 -2.625 2.03125 -2.703125 C 1.46875 -2.8125 0.8125 -2.9375 0.8125 -3.515625 C 0.8125 -3.875 1.0625 -4.28125 1.921875 -4.28125 C 3.015625 -4.28125 3.078125 -3.375 3.09375 -3.078125 C 3.09375 -2.984375 3.1875 -2.984375 3.203125 -2.984375 C 3.34375 -2.984375 3.34375 -3.03125 3.34375 -3.21875 L 3.34375 -4.234375 C 3.34375 -4.390625 3.34375 -4.46875 3.234375 -4.46875 C 3.1875 -4.46875 3.15625 -4.46875 3.03125 -4.34375 C 3 -4.3125 2.90625 -4.21875 2.859375 -4.1875 C 2.484375 -4.46875 2.078125 -4.46875 1.921875 -4.46875 C 0.703125 -4.46875 0.328125 -3.796875 0.328125 -3.234375 C 0.328125 -2.890625 0.484375 -2.609375 0.75 -2.390625 C 1.078125 -2.140625 1.359375 -2.078125 2.078125 -1.9375 Z M 2.078125 -1.9375 "
               style="stroke:none;" />
          </symbol>
          <symbol
             id="textext-b4c6422a-18"
             overflow="visible">
            <path
               id="path3915"
               d="M 1.765625 -4.40625 L 0.375 -4.296875 L 0.375 -3.984375 C 1.015625 -3.984375 1.109375 -3.921875 1.109375 -3.4375 L 1.109375 -0.75 C 1.109375 -0.3125 1 -0.3125 0.328125 -0.3125 L 0.328125 0 C 0.640625 -0.015625 1.1875 -0.03125 1.421875 -0.03125 C 1.78125 -0.03125 2.125 -0.015625 2.46875 0 L 2.46875 -0.3125 C 1.796875 -0.3125 1.765625 -0.359375 1.765625 -0.75 Z M 1.796875 -6.140625 C 1.796875 -6.453125 1.5625 -6.671875 1.28125 -6.671875 C 0.96875 -6.671875 0.75 -6.40625 0.75 -6.140625 C 0.75 -5.875 0.96875 -5.609375 1.28125 -5.609375 C 1.5625 -5.609375 1.796875 -5.828125 1.796875 -6.140625 Z M 1.796875 -6.140625 "
               style="stroke:none;" />
          </symbol>
          <symbol
             id="textext-b4c6422a-19"
             overflow="visible">
            <path
               id="path3918"
               d="M 1.09375 -3.421875 L 1.09375 -0.75 C 1.09375 -0.3125 0.984375 -0.3125 0.3125 -0.3125 L 0.3125 0 C 0.671875 -0.015625 1.171875 -0.03125 1.453125 -0.03125 C 1.703125 -0.03125 2.21875 -0.015625 2.5625 0 L 2.5625 -0.3125 C 1.890625 -0.3125 1.78125 -0.3125 1.78125 -0.75 L 1.78125 -2.59375 C 1.78125 -3.625 2.5 -4.1875 3.125 -4.1875 C 3.765625 -4.1875 3.875 -3.65625 3.875 -3.078125 L 3.875 -0.75 C 3.875 -0.3125 3.765625 -0.3125 3.09375 -0.3125 L 3.09375 0 C 3.4375 -0.015625 3.953125 -0.03125 4.21875 -0.03125 C 4.46875 -0.03125 5 -0.015625 5.328125 0 L 5.328125 -0.3125 C 4.8125 -0.3125 4.5625 -0.3125 4.5625 -0.609375 L 4.5625 -2.515625 C 4.5625 -3.375 4.5625 -3.671875 4.25 -4.03125 C 4.109375 -4.203125 3.78125 -4.40625 3.203125 -4.40625 C 2.46875 -4.40625 2 -3.984375 1.71875 -3.359375 L 1.71875 -4.40625 L 0.3125 -4.296875 L 0.3125 -3.984375 C 1.015625 -3.984375 1.09375 -3.921875 1.09375 -3.421875 Z M 1.09375 -3.421875 "
               style="stroke:none;" />
          </symbol>
          <symbol
             id="textext-b4c6422a-20"
             overflow="visible">
            <path
               id="path3921"
               d="M 3.296875 2.390625 C 3.296875 2.359375 3.296875 2.34375 3.125 2.171875 C 1.890625 0.921875 1.5625 -0.96875 1.5625 -2.5 C 1.5625 -4.234375 1.9375 -5.96875 3.171875 -7.203125 C 3.296875 -7.328125 3.296875 -7.34375 3.296875 -7.375 C 3.296875 -7.453125 3.265625 -7.484375 3.203125 -7.484375 C 3.09375 -7.484375 2.203125 -6.796875 1.609375 -5.53125 C 1.109375 -4.4375 0.984375 -3.328125 0.984375 -2.5 C 0.984375 -1.71875 1.09375 -0.515625 1.640625 0.625 C 2.25 1.84375 3.09375 2.5 3.203125 2.5 C 3.265625 2.5 3.296875 2.46875 3.296875 2.390625 Z M 3.296875 2.390625 "
               style="stroke:none;" />
          </symbol>
          <symbol
             id="textext-b4c6422a-21"
             overflow="visible">
            <path
               id="path3924"
               d="M 2.875 -2.5 C 2.875 -3.265625 2.765625 -4.46875 2.21875 -5.609375 C 1.625 -6.828125 0.765625 -7.484375 0.671875 -7.484375 C 0.609375 -7.484375 0.5625 -7.4375 0.5625 -7.375 C 0.5625 -7.34375 0.5625 -7.328125 0.75 -7.140625 C 1.734375 -6.15625 2.296875 -4.578125 2.296875 -2.5 C 2.296875 -0.78125 1.9375 0.96875 0.703125 2.21875 C 0.5625 2.34375 0.5625 2.359375 0.5625 2.390625 C 0.5625 2.453125 0.609375 2.5 0.671875 2.5 C 0.765625 2.5 1.671875 1.8125 2.25 0.546875 C 2.765625 -0.546875 2.875 -1.65625 2.875 -2.5 Z M 2.875 -2.5 "
               style="stroke:none;" />
          </symbol>
          <symbol
             id="textext-b4c6422a-22"
             overflow="visible">
            <path
               id="path3927"
               d="M 3.65625 -3.984375 L 4.515625 -3.984375 C 4.71875 -3.984375 4.8125 -3.984375 4.8125 -4.1875 C 4.8125 -4.296875 4.71875 -4.296875 4.546875 -4.296875 L 3.71875 -4.296875 L 3.921875 -5.4375 C 3.96875 -5.640625 4.109375 -6.34375 4.171875 -6.46875 C 4.25 -6.65625 4.421875 -6.8125 4.640625 -6.8125 C 4.671875 -6.8125 4.9375 -6.8125 5.125 -6.625 C 4.6875 -6.59375 4.578125 -6.234375 4.578125 -6.09375 C 4.578125 -5.859375 4.765625 -5.734375 4.953125 -5.734375 C 5.21875 -5.734375 5.5 -5.96875 5.5 -6.34375 C 5.5 -6.796875 5.046875 -7.03125 4.640625 -7.03125 C 4.296875 -7.03125 3.671875 -6.84375 3.375 -5.859375 C 3.3125 -5.65625 3.28125 -5.546875 3.046875 -4.296875 L 2.359375 -4.296875 C 2.15625 -4.296875 2.046875 -4.296875 2.046875 -4.109375 C 2.046875 -3.984375 2.140625 -3.984375 2.328125 -3.984375 L 2.984375 -3.984375 L 2.25 -0.046875 C 2.0625 0.921875 1.890625 1.828125 1.375 1.828125 C 1.328125 1.828125 1.09375 1.828125 0.890625 1.640625 C 1.359375 1.609375 1.453125 1.25 1.453125 1.109375 C 1.453125 0.875 1.265625 0.75 1.078125 0.75 C 0.8125 0.75 0.53125 0.984375 0.53125 1.359375 C 0.53125 1.796875 0.96875 2.046875 1.375 2.046875 C 1.921875 2.046875 2.328125 1.453125 2.5 1.078125 C 2.828125 0.453125 3.046875 -0.75 3.0625 -0.828125 Z M 3.65625 -3.984375 "
               style="stroke:none;" />
          </symbol>
          <symbol
             id="textext-b4c6422a-23"
             overflow="visible">
            <path
               id="path3930"
               d="M 4.25 -6.046875 C 4.328125 -6.328125 4.359375 -6.390625 4.484375 -6.421875 C 4.578125 -6.4375 4.90625 -6.4375 5.109375 -6.4375 C 6.125 -6.4375 6.5625 -6.40625 6.5625 -5.625 C 6.5625 -5.46875 6.53125 -5.078125 6.484375 -4.828125 C 6.484375 -4.78125 6.453125 -4.671875 6.453125 -4.640625 C 6.453125 -4.578125 6.484375 -4.5 6.578125 -4.5 C 6.6875 -4.5 6.703125 -4.578125 6.734375 -4.734375 L 7 -6.46875 C 7.015625 -6.515625 7.015625 -6.609375 7.015625 -6.640625 C 7.015625 -6.75 6.921875 -6.75 6.75 -6.75 L 1.21875 -6.75 C 0.984375 -6.75 0.96875 -6.734375 0.890625 -6.546875 L 0.296875 -4.796875 C 0.296875 -4.78125 0.234375 -4.640625 0.234375 -4.609375 C 0.234375 -4.5625 0.296875 -4.5 0.359375 -4.5 C 0.453125 -4.5 0.46875 -4.5625 0.53125 -4.71875 C 1.0625 -6.265625 1.328125 -6.4375 2.796875 -6.4375 L 3.1875 -6.4375 C 3.46875 -6.4375 3.46875 -6.40625 3.46875 -6.3125 C 3.46875 -6.265625 3.4375 -6.140625 3.421875 -6.109375 L 2.09375 -0.78125 C 2 -0.421875 1.96875 -0.3125 0.90625 -0.3125 C 0.546875 -0.3125 0.484375 -0.3125 0.484375 -0.125 C 0.484375 0 0.59375 0 0.65625 0 C 0.921875 0 1.203125 -0.015625 1.46875 -0.015625 C 1.75 -0.015625 2.046875 -0.03125 2.328125 -0.03125 C 2.609375 -0.03125 2.875 -0.015625 3.15625 -0.015625 C 3.4375 -0.015625 3.734375 0 4.015625 0 C 4.109375 0 4.234375 0 4.234375 -0.203125 C 4.234375 -0.3125 4.15625 -0.3125 3.890625 -0.3125 C 3.65625 -0.3125 3.515625 -0.3125 3.265625 -0.328125 C 2.96875 -0.359375 2.890625 -0.390625 2.890625 -0.546875 C 2.890625 -0.5625 2.890625 -0.609375 2.9375 -0.75 Z M 4.25 -6.046875 "
               style="stroke:none;" />
          </symbol>
          <symbol
             id="textext-b4c6422a-24"
             overflow="visible">
            <path
               id="path3933"
               d="M 4.359375 -6.671875 C 4.359375 -6.703125 4.390625 -6.8125 4.390625 -6.8125 C 4.390625 -6.828125 4.390625 -6.921875 4.265625 -6.921875 C 4.171875 -6.921875 4.15625 -6.890625 4.109375 -6.71875 L 3.53125 -4.421875 C 1.953125 -4.359375 0.484375 -3.046875 0.484375 -1.6875 C 0.484375 -0.734375 1.1875 0.046875 2.40625 0.125 C 2.328125 0.421875 2.25 0.75 2.171875 1.0625 C 2.046875 1.53125 1.953125 1.90625 1.953125 1.9375 C 1.953125 2.03125 2.03125 2.046875 2.078125 2.046875 C 2.125 2.046875 2.140625 2.03125 2.171875 2 C 2.1875 1.984375 2.25 1.75 2.28125 1.609375 L 2.65625 0.125 C 4.265625 0.0625 5.71875 -1.28125 5.71875 -2.609375 C 5.71875 -3.40625 5.1875 -4.3125 3.796875 -4.421875 Z M 2.453125 -0.09375 C 1.859375 -0.125 1.140625 -0.484375 1.140625 -1.46875 C 1.140625 -2.671875 2 -4.0625 3.484375 -4.203125 Z M 3.734375 -4.203125 C 4.5 -4.15625 5.0625 -3.703125 5.0625 -2.828125 C 5.0625 -1.640625 4.203125 -0.21875 2.71875 -0.09375 Z M 3.734375 -4.203125 "
               style="stroke:none;" />
          </symbol>
          <symbol
             id="textext-b4c6422a-25"
             overflow="visible">
            <path
               id="path3936"
               d="M 7.578125 -6.921875 C 7.578125 -6.953125 7.5625 -7.03125 7.46875 -7.03125 C 7.4375 -7.03125 7.421875 -7.015625 7.3125 -6.90625 L 6.625 -6.140625 C 6.53125 -6.28125 6.078125 -7.03125 4.96875 -7.03125 C 2.734375 -7.03125 0.5 -4.828125 0.5 -2.515625 C 0.5 -0.875 1.671875 0.21875 3.203125 0.21875 C 4.0625 0.21875 4.828125 -0.171875 5.359375 -0.640625 C 6.28125 -1.453125 6.453125 -2.359375 6.453125 -2.390625 C 6.453125 -2.5 6.34375 -2.5 6.328125 -2.5 C 6.265625 -2.5 6.21875 -2.46875 6.203125 -2.390625 C 6.109375 -2.109375 5.875 -1.390625 5.1875 -0.8125 C 4.5 -0.265625 3.875 -0.09375 3.359375 -0.09375 C 2.46875 -0.09375 1.40625 -0.609375 1.40625 -2.15625 C 1.40625 -2.734375 1.609375 -4.34375 2.609375 -5.515625 C 3.21875 -6.21875 4.15625 -6.71875 5.046875 -6.71875 C 6.0625 -6.71875 6.65625 -5.953125 6.65625 -4.796875 C 6.65625 -4.390625 6.625 -4.390625 6.625 -4.28125 C 6.625 -4.1875 6.734375 -4.1875 6.765625 -4.1875 C 6.890625 -4.1875 6.890625 -4.203125 6.953125 -4.390625 Z M 7.578125 -6.921875 "
               style="stroke:none;" />
          </symbol>
          <symbol
             id="textext-b4c6422a-26"
             overflow="visible">
            <path
               id="path3939"
               d="M 1.578125 -0.78125 C 1.484375 -0.390625 1.46875 -0.3125 0.671875 -0.3125 C 0.515625 -0.3125 0.40625 -0.3125 0.40625 -0.125 C 0.40625 0 0.484375 0 0.671875 0 L 3.984375 0 C 6.046875 0 8.015625 -2.109375 8.015625 -4.28125 C 8.015625 -5.6875 7.171875 -6.8125 5.671875 -6.8125 L 2.328125 -6.8125 C 2.140625 -6.8125 2.03125 -6.8125 2.03125 -6.625 C 2.03125 -6.5 2.109375 -6.5 2.3125 -6.5 C 2.4375 -6.5 2.625 -6.484375 2.734375 -6.484375 C 2.90625 -6.453125 2.953125 -6.4375 2.953125 -6.3125 C 2.953125 -6.28125 2.953125 -6.25 2.921875 -6.125 Z M 3.734375 -6.125 C 3.828125 -6.46875 3.84375 -6.5 4.28125 -6.5 L 5.34375 -6.5 C 6.3125 -6.5 7.140625 -5.96875 7.140625 -4.65625 C 7.140625 -4.171875 6.953125 -2.53125 6.09375 -1.4375 C 5.8125 -1.0625 5.03125 -0.3125 3.796875 -0.3125 L 2.671875 -0.3125 C 2.53125 -0.3125 2.515625 -0.3125 2.453125 -0.3125 C 2.359375 -0.328125 2.328125 -0.34375 2.328125 -0.421875 C 2.328125 -0.453125 2.328125 -0.46875 2.375 -0.640625 Z M 3.734375 -6.125 "
               style="stroke:none;" />
          </symbol>
          <symbol
             id="textext-b4c6422a-27"
             overflow="visible">
            <path
               id="path3942"
               d="M 3.5625 -2.90625 C 3.96875 -1.859375 4.453125 -0.34375 4.609375 -0.109375 C 4.765625 0.109375 4.859375 0.109375 5.140625 0.109375 L 5.359375 0.109375 C 5.453125 0.09375 5.46875 0.046875 5.46875 0.015625 C 5.46875 -0.015625 5.4375 -0.046875 5.40625 -0.078125 C 5.3125 -0.1875 5.25 -0.34375 5.1875 -0.53125 L 3.15625 -6.203125 C 2.9375 -6.78125 2.40625 -6.921875 1.9375 -6.921875 C 1.890625 -6.921875 1.75 -6.921875 1.75 -6.8125 C 1.75 -6.734375 1.828125 -6.703125 1.84375 -6.703125 C 2.171875 -6.65625 2.25 -6.59375 2.5 -5.90625 L 3.453125 -3.203125 L 0.703125 -0.46875 C 0.59375 -0.34375 0.53125 -0.296875 0.53125 -0.15625 C 0.53125 0.015625 0.671875 0.125 0.828125 0.125 C 0.984375 0.125 1.078125 0.015625 1.15625 -0.078125 Z M 3.5625 -2.90625 "
               style="stroke:none;" />
          </symbol>
          <symbol
             id="textext-b4c6422a-28"
             overflow="visible">
            <path
               id="path3945"
               d="M 3.6875 -1.140625 L 3.6875 -1.390625 L 2.90625 -1.390625 L 2.90625 -4.5 C 2.90625 -4.640625 2.90625 -4.703125 2.765625 -4.703125 C 2.671875 -4.703125 2.640625 -4.703125 2.578125 -4.59375 L 0.265625 -1.390625 L 0.265625 -1.140625 L 2.328125 -1.140625 L 2.328125 -0.578125 C 2.328125 -0.328125 2.328125 -0.25 1.75 -0.25 L 1.5625 -0.25 L 1.5625 0 C 1.921875 -0.015625 2.359375 -0.03125 2.609375 -0.03125 C 2.875 -0.03125 3.3125 -0.015625 3.671875 0 L 3.671875 -0.25 L 3.484375 -0.25 C 2.90625 -0.25 2.90625 -0.328125 2.90625 -0.578125 L 2.90625 -1.140625 Z M 2.375 -3.9375 L 2.375 -1.390625 L 0.53125 -1.390625 Z M 2.375 -3.9375 "
               style="stroke:none;" />
          </symbol>
          <symbol
             id="textext-b4c6422a-29"
             overflow="visible">
            <path
               id="path3948"
               d="M 3.515625 -1.265625 L 3.28125 -1.265625 C 3.265625 -1.109375 3.1875 -0.703125 3.09375 -0.640625 C 3.046875 -0.59375 2.515625 -0.59375 2.40625 -0.59375 L 1.125 -0.59375 C 1.859375 -1.234375 2.109375 -1.4375 2.515625 -1.765625 C 3.03125 -2.171875 3.515625 -2.609375 3.515625 -3.265625 C 3.515625 -4.109375 2.78125 -4.625 1.890625 -4.625 C 1.03125 -4.625 0.4375 -4.015625 0.4375 -3.375 C 0.4375 -3.03125 0.734375 -2.984375 0.8125 -2.984375 C 0.96875 -2.984375 1.171875 -3.109375 1.171875 -3.359375 C 1.171875 -3.484375 1.125 -3.734375 0.765625 -3.734375 C 0.984375 -4.21875 1.453125 -4.375 1.78125 -4.375 C 2.484375 -4.375 2.84375 -3.828125 2.84375 -3.265625 C 2.84375 -2.65625 2.40625 -2.1875 2.1875 -1.9375 L 0.515625 -0.265625 C 0.4375 -0.203125 0.4375 -0.1875 0.4375 0 L 3.3125 0 Z M 3.515625 -1.265625 "
               style="stroke:none;" />
          </symbol>
          <symbol
             id="textext-b4c6422a-30"
             overflow="visible">
            <path
               id="path3951"
               d="M 2.46875 -5.21875 C 1.15625 -4.296875 0.796875 -2.8125 0.796875 -1.75 C 0.796875 -0.765625 1.09375 0.765625 2.46875 1.734375 C 2.53125 1.734375 2.609375 1.734375 2.609375 1.65625 C 2.609375 1.609375 2.59375 1.59375 2.546875 1.546875 C 1.609375 0.703125 1.28125 -0.46875 1.28125 -1.734375 C 1.28125 -3.625 2 -4.546875 2.5625 -5.0625 C 2.59375 -5.09375 2.609375 -5.109375 2.609375 -5.140625 C 2.609375 -5.21875 2.53125 -5.21875 2.46875 -5.21875 Z M 2.46875 -5.21875 "
               style="stroke:none;" />
          </symbol>
          <symbol
             id="textext-b4c6422a-31"
             overflow="visible">
            <path
               id="path3954"
               d="M 2.328125 -4.4375 C 2.328125 -4.625 2.328125 -4.625 2.125 -4.625 C 1.671875 -4.1875 1.046875 -4.1875 0.765625 -4.1875 L 0.765625 -3.9375 C 0.921875 -3.9375 1.390625 -3.9375 1.765625 -4.125 L 1.765625 -0.578125 C 1.765625 -0.34375 1.765625 -0.25 1.078125 -0.25 L 0.8125 -0.25 L 0.8125 0 C 0.9375 0 1.796875 -0.03125 2.046875 -0.03125 C 2.265625 -0.03125 3.140625 0 3.296875 0 L 3.296875 -0.25 L 3.03125 -0.25 C 2.328125 -0.25 2.328125 -0.34375 2.328125 -0.578125 Z M 2.328125 -4.4375 "
               style="stroke:none;" />
          </symbol>
          <symbol
             id="textext-b4c6422a-32"
             overflow="visible">
            <path
               id="path3957"
               d="M 0.625 -5.21875 C 0.578125 -5.21875 0.5 -5.21875 0.5 -5.140625 C 0.5 -5.109375 0.515625 -5.09375 0.5625 -5.03125 C 1.15625 -4.484375 1.828125 -3.546875 1.828125 -1.75 C 1.828125 -0.296875 1.375 0.8125 0.625 1.484375 C 0.5 1.609375 0.5 1.609375 0.5 1.65625 C 0.5 1.6875 0.515625 1.734375 0.578125 1.734375 C 0.671875 1.734375 1.328125 1.28125 1.796875 0.40625 C 2.09375 -0.171875 2.296875 -0.921875 2.296875 -1.734375 C 2.296875 -2.71875 2 -4.25 0.625 -5.21875 Z M 0.625 -5.21875 "
               style="stroke:none;" />
          </symbol>
          <symbol
             id="textext-b4c6422a-33"
             overflow="visible">
            <path
               id="path3960"
               d="M 3.109375 -0.96875 C 3.078125 -1.375 2.84375 -3.078125 1.703125 -3.078125 C 1.296875 -3.078125 0.9375 -2.84375 0.75 -2.671875 C 0.328125 -2.28125 0.234375 -1.84375 0.234375 -1.8125 C 0.234375 -1.734375 0.328125 -1.734375 0.34375 -1.734375 C 0.4375 -1.734375 0.453125 -1.75 0.484375 -1.859375 C 0.625 -2.265625 1.140625 -2.515625 1.609375 -2.515625 C 2.734375 -2.515625 2.875 -1.390625 2.875 -0.6875 C 2.875 -0.328125 2.859375 -0.265625 2.828125 -0.1875 C 2.671875 0.34375 2.453125 1.109375 2.453125 1.328125 C 2.453125 1.40625 2.484375 1.484375 2.578125 1.484375 C 2.625 1.484375 2.703125 1.484375 2.8125 1.125 C 2.90625 0.859375 3.03125 0.34375 3.09375 -0.15625 C 3.109375 -0.40625 3.5 -1.34375 3.65625 -1.671875 C 3.75 -1.890625 3.890625 -2.21875 4.21875 -2.828125 C 4.25 -2.859375 4.265625 -2.890625 4.265625 -2.921875 C 4.265625 -3 4.171875 -3 4.140625 -3 C 4.125 -3 4.0625 -3 4.046875 -2.96875 C 3.953125 -2.828125 3.421875 -1.828125 3.109375 -0.96875 Z M 3.109375 -0.96875 "
               style="stroke:none;" />
          </symbol>
          <symbol
             id="textext-b4c6422a-34"
             overflow="visible">
            <path
               id="path3963"
               d="M 2.1875 -4.625 C 2.1875 -4.640625 2.203125 -4.734375 2.203125 -4.734375 C 2.203125 -4.78125 2.1875 -4.84375 2.09375 -4.84375 C 1.953125 -4.84375 1.375 -4.78125 1.203125 -4.765625 C 1.15625 -4.765625 1.046875 -4.75 1.046875 -4.609375 C 1.046875 -4.515625 1.15625 -4.515625 1.234375 -4.515625 C 1.5625 -4.515625 1.5625 -4.453125 1.5625 -4.40625 C 1.5625 -4.359375 1.546875 -4.3125 1.546875 -4.25 L 0.5625 -0.3125 C 0.515625 -0.1875 0.515625 -0.171875 0.515625 -0.15625 C 0.515625 -0.046875 0.609375 0.0625 0.765625 0.0625 C 0.953125 0.0625 1.03125 -0.0625 1.078125 -0.21875 C 1.09375 -0.25 1.390625 -1.484375 1.421875 -1.578125 C 1.921875 -1.53125 2.3125 -1.359375 2.3125 -1 C 2.3125 -0.96875 2.3125 -0.9375 2.296875 -0.859375 C 2.265625 -0.765625 2.265625 -0.71875 2.265625 -0.640625 C 2.265625 -0.15625 2.671875 0.0625 3.015625 0.0625 C 3.6875 0.0625 3.890625 -0.984375 3.890625 -1 C 3.890625 -1.09375 3.8125 -1.09375 3.78125 -1.09375 C 3.6875 -1.09375 3.671875 -1.046875 3.640625 -0.921875 C 3.5625 -0.625 3.375 -0.125 3.03125 -0.125 C 2.84375 -0.125 2.78125 -0.296875 2.78125 -0.484375 C 2.78125 -0.609375 2.78125 -0.625 2.828125 -0.796875 C 2.84375 -0.828125 2.859375 -0.9375 2.859375 -1.015625 C 2.859375 -1.640625 2.03125 -1.734375 1.734375 -1.75 C 1.9375 -1.875 2.1875 -2.109375 2.3125 -2.21875 C 2.671875 -2.546875 3.015625 -2.875 3.40625 -2.875 C 3.484375 -2.875 3.578125 -2.859375 3.640625 -2.78125 C 3.34375 -2.734375 3.28125 -2.5 3.28125 -2.390625 C 3.28125 -2.25 3.390625 -2.140625 3.546875 -2.140625 C 3.75 -2.140625 3.953125 -2.296875 3.953125 -2.578125 C 3.953125 -2.8125 3.78125 -3.078125 3.421875 -3.078125 C 3.015625 -3.078125 2.65625 -2.78125 2.296875 -2.453125 C 2 -2.1875 1.78125 -1.96875 1.484375 -1.84375 Z M 2.1875 -4.625 "
               style="stroke:none;" />
          </symbol>
          <symbol
             id="textext-b4c6422a-35"
             overflow="visible">
            <path
               id="path3966"
               d="M 7.109375 -4.1875 C 7.171875 -4.453125 7.1875 -4.515625 7.703125 -4.515625 C 7.859375 -4.515625 7.9375 -4.515625 7.9375 -4.65625 C 7.9375 -4.765625 7.859375 -4.765625 7.734375 -4.765625 L 6.78125 -4.765625 C 6.578125 -4.765625 6.578125 -4.75 6.484375 -4.625 L 3.796875 -0.640625 L 3.109375 -4.578125 C 3.078125 -4.75 3.078125 -4.765625 2.859375 -4.765625 L 1.875 -4.765625 C 1.734375 -4.765625 1.640625 -4.765625 1.640625 -4.609375 C 1.640625 -4.515625 1.71875 -4.515625 1.875 -4.515625 C 1.984375 -4.515625 2.015625 -4.515625 2.140625 -4.5 C 2.28125 -4.484375 2.296875 -4.46875 2.296875 -4.390625 C 2.296875 -4.390625 2.296875 -4.34375 2.265625 -4.25 L 1.390625 -0.75 C 1.328125 -0.515625 1.21875 -0.265625 0.65625 -0.25 C 0.609375 -0.25 0.515625 -0.25 0.515625 -0.09375 C 0.515625 -0.09375 0.515625 0 0.625 0 C 0.828125 0 1.125 -0.03125 1.34375 -0.03125 C 1.515625 -0.03125 1.921875 0 2.078125 0 C 2.125 0 2.21875 0 2.21875 -0.15625 C 2.21875 -0.25 2.125 -0.25 2.0625 -0.25 C 1.625 -0.265625 1.625 -0.453125 1.625 -0.546875 C 1.625 -0.578125 1.625 -0.609375 1.65625 -0.71875 L 2.578125 -4.421875 L 3.328125 -0.1875 C 3.359375 -0.0625 3.359375 0 3.46875 0 C 3.5625 0 3.625 -0.078125 3.671875 -0.15625 L 6.59375 -4.5 L 6.609375 -4.484375 L 5.625 -0.546875 C 5.5625 -0.3125 5.546875 -0.25 5.015625 -0.25 C 4.890625 -0.25 4.796875 -0.25 4.796875 -0.09375 C 4.796875 -0.09375 4.796875 0 4.90625 0 C 5.046875 0 5.203125 -0.015625 5.34375 -0.015625 C 5.484375 -0.015625 5.640625 -0.03125 5.78125 -0.03125 C 5.984375 -0.03125 6.46875 0 6.671875 0 C 6.703125 0 6.8125 0 6.8125 -0.15625 C 6.8125 -0.25 6.734375 -0.25 6.59375 -0.25 C 6.578125 -0.25 6.453125 -0.25 6.328125 -0.265625 C 6.171875 -0.28125 6.171875 -0.296875 6.171875 -0.375 C 6.171875 -0.40625 6.1875 -0.484375 6.1875 -0.515625 Z M 7.109375 -4.1875 "
               style="stroke:none;" />
          </symbol>
          <symbol
             id="textext-b4c6422a-36"
             overflow="visible">
            <path
               id="path3969"
               d="M 2.8125 -2 C 3.15625 -1.203125 3.5625 -0.1875 3.640625 -0.09375 C 3.765625 0.0625 3.890625 0.0625 4 0.0625 L 4.140625 0.0625 C 4.28125 0.0625 4.34375 0.0625 4.34375 -0.015625 C 4.34375 -0.046875 4.328125 -0.0625 4.3125 -0.078125 C 4.234375 -0.15625 4.15625 -0.328125 4.125 -0.390625 L 2.4375 -4.390625 C 2.390625 -4.515625 2.25 -4.84375 1.5 -4.84375 C 1.421875 -4.84375 1.328125 -4.84375 1.328125 -4.734375 C 1.328125 -4.65625 1.390625 -4.640625 1.421875 -4.640625 C 1.578125 -4.625 1.703125 -4.59375 1.875 -4.203125 L 2.703125 -2.25 L 0.65625 -0.390625 C 0.578125 -0.328125 0.515625 -0.265625 0.515625 -0.15625 C 0.515625 0.015625 0.65625 0.078125 0.75 0.078125 C 0.890625 0.078125 0.96875 0 0.984375 -0.03125 Z M 2.8125 -2 "
               style="stroke:none;" />
          </symbol>
          <symbol
             id="textext-b4c6422a-37"
             overflow="visible">
            <path
               id="path3972"
               d="M 2.171875 -2.53125 L 3 -2.53125 C 2.890625 -2.109375 2.734375 -1.484375 2.734375 -0.921875 C 2.734375 -0.640625 2.78125 -0.453125 2.8125 -0.3125 C 2.921875 0.046875 3.015625 0.0625 3.125 0.0625 C 3.296875 0.0625 3.453125 -0.078125 3.453125 -0.25 C 3.453125 -0.296875 3.4375 -0.328125 3.40625 -0.390625 C 3.265625 -0.65625 3.140625 -1.046875 3.140625 -1.625 C 3.140625 -1.75 3.140625 -2.03125 3.234375 -2.53125 L 4.109375 -2.53125 C 4.234375 -2.53125 4.296875 -2.53125 4.375 -2.578125 C 4.46875 -2.65625 4.484375 -2.765625 4.484375 -2.796875 C 4.484375 -3 4.3125 -3 4.1875 -3 L 1.5625 -3 C 1.28125 -3 1.078125 -2.9375 0.765625 -2.640625 C 0.578125 -2.484375 0.3125 -2.109375 0.3125 -2.046875 C 0.3125 -1.96875 0.40625 -1.96875 0.4375 -1.96875 C 0.515625 -1.96875 0.515625 -1.984375 0.5625 -2.046875 C 0.90625 -2.53125 1.34375 -2.53125 1.5 -2.53125 L 1.921875 -2.53125 C 1.703125 -1.765625 1.328125 -0.9375 1.125 -0.515625 C 1.078125 -0.4375 1.015625 -0.28125 0.984375 -0.265625 C 0.984375 -0.234375 0.96875 -0.203125 0.96875 -0.15625 C 0.96875 -0.046875 1.046875 0.0625 1.21875 0.0625 C 1.484375 0.0625 1.5625 -0.25 1.734375 -0.875 Z M 2.171875 -2.53125 "
               style="stroke:none;" />
          </symbol>
          <symbol
             id="textext-b4c6422a-38"
             overflow="visible">
            <path
               id="path3975"
               d="M 0.84375 -0.4375 C 0.828125 -0.34375 0.78125 -0.171875 0.78125 -0.15625 C 0.78125 0 0.90625 0.0625 1.015625 0.0625 C 1.140625 0.0625 1.25 -0.015625 1.296875 -0.078125 C 1.328125 -0.140625 1.375 -0.375 1.421875 -0.515625 C 1.453125 -0.640625 1.53125 -0.96875 1.5625 -1.140625 C 1.609375 -1.296875 1.65625 -1.453125 1.6875 -1.609375 C 1.765625 -1.890625 1.78125 -1.953125 1.984375 -2.234375 C 2.171875 -2.515625 2.5 -2.875 3.03125 -2.875 C 3.421875 -2.875 3.4375 -2.515625 3.4375 -2.390625 C 3.4375 -1.96875 3.140625 -1.203125 3.03125 -0.90625 C 2.953125 -0.703125 2.921875 -0.640625 2.921875 -0.53125 C 2.921875 -0.15625 3.21875 0.0625 3.578125 0.0625 C 4.28125 0.0625 4.578125 -0.890625 4.578125 -1 C 4.578125 -1.09375 4.5 -1.09375 4.46875 -1.09375 C 4.375 -1.09375 4.375 -1.046875 4.34375 -0.96875 C 4.1875 -0.40625 3.875 -0.125 3.609375 -0.125 C 3.453125 -0.125 3.421875 -0.21875 3.421875 -0.375 C 3.421875 -0.53125 3.46875 -0.625 3.59375 -0.9375 C 3.671875 -1.15625 3.953125 -1.890625 3.953125 -2.28125 C 3.953125 -2.953125 3.421875 -3.078125 3.046875 -3.078125 C 2.46875 -3.078125 2.078125 -2.71875 1.875 -2.4375 C 1.828125 -2.921875 1.421875 -3.078125 1.125 -3.078125 C 0.828125 -3.078125 0.671875 -2.859375 0.578125 -2.703125 C 0.421875 -2.4375 0.328125 -2.046875 0.328125 -2 C 0.328125 -1.921875 0.421875 -1.921875 0.453125 -1.921875 C 0.546875 -1.921875 0.546875 -1.9375 0.59375 -2.125 C 0.703125 -2.53125 0.84375 -2.875 1.109375 -2.875 C 1.296875 -2.875 1.34375 -2.71875 1.34375 -2.53125 C 1.34375 -2.40625 1.28125 -2.140625 1.21875 -1.953125 C 1.171875 -1.765625 1.109375 -1.484375 1.078125 -1.328125 Z M 0.84375 -0.4375 "
               style="stroke:none;" />
          </symbol>
          <symbol
             id="textext-b4c6422a-39"
             overflow="visible">
            <path
               id="path3978"
               d="M 3.71875 -2.53125 C 3.71875 -3.078125 3.390625 -3.078125 3.375 -3.078125 C 3.1875 -3.078125 3 -2.890625 3 -2.703125 C 3 -2.59375 3.0625 -2.53125 3.109375 -2.5 C 3.234375 -2.390625 3.375 -2.21875 3.375 -1.9375 C 3.375 -1.625 2.90625 -0.125 2.078125 -0.125 C 1.515625 -0.125 1.515625 -0.625 1.515625 -0.75 C 1.515625 -1.0625 1.640625 -1.453125 1.90625 -2.109375 C 1.953125 -2.25 2 -2.359375 2 -2.46875 C 2 -2.84375 1.6875 -3.078125 1.34375 -3.078125 C 0.640625 -3.078125 0.328125 -2.125 0.328125 -2 C 0.328125 -1.921875 0.421875 -1.921875 0.453125 -1.921875 C 0.546875 -1.921875 0.546875 -1.953125 0.578125 -2.03125 C 0.734375 -2.59375 1.03125 -2.875 1.3125 -2.875 C 1.4375 -2.875 1.484375 -2.796875 1.484375 -2.640625 C 1.484375 -2.46875 1.4375 -2.328125 1.359375 -2.171875 C 1.0625 -1.390625 0.984375 -1.09375 0.984375 -0.84375 C 0.984375 -0.15625 1.53125 0.0625 2.0625 0.0625 C 3.234375 0.0625 3.71875 -1.953125 3.71875 -2.53125 Z M 3.71875 -2.53125 "
               style="stroke:none;" />
          </symbol>
          <symbol
             id="textext-b4c6422a-40"
             overflow="visible">
            <path
               id="path3981"
               d="M 2.53125 -1.890625 C 2.359375 -1.828125 2.328125 -1.6875 2.328125 -1.640625 C 2.328125 -1.515625 2.4375 -1.453125 2.515625 -1.453125 C 2.578125 -1.453125 2.78125 -1.5 2.78125 -1.765625 C 2.78125 -2.09375 2.390625 -2.203125 2.015625 -2.203125 C 1.171875 -2.203125 1.015625 -1.6875 1.015625 -1.515625 C 1.015625 -1.328125 1.109375 -1.21875 1.203125 -1.15625 C 1.34375 -1.0625 1.5 -1.03125 1.765625 -0.984375 C 2.078125 -0.9375 2.421875 -0.890625 2.421875 -0.640625 C 2.421875 -0.625 2.421875 -0.109375 1.5 -0.109375 C 1.3125 -0.109375 1 -0.125 0.84375 -0.28125 C 1.03125 -0.328125 1.109375 -0.46875 1.109375 -0.59375 C 1.109375 -0.734375 1 -0.796875 0.890625 -0.796875 C 0.71875 -0.796875 0.578125 -0.65625 0.578125 -0.4375 C 0.578125 0.0625 1.34375 0.0625 1.5 0.0625 C 2.515625 0.0625 2.6875 -0.53125 2.6875 -0.734375 C 2.6875 -1.1875 2.140625 -1.265625 1.890625 -1.3125 C 1.53125 -1.375 1.28125 -1.40625 1.28125 -1.609375 C 1.28125 -1.625 1.28125 -2.03125 2 -2.03125 C 2.140625 -2.03125 2.390625 -2.03125 2.53125 -1.890625 Z M 2.53125 -1.890625 "
               style="stroke:none;" />
          </symbol>
          <symbol
             id="textext-b4c6422a-41"
             overflow="visible">
            <path
               id="path3984"
               d="M 0.796875 0 L 0.796875 -3.484375 L 0.5 -3.484375 L 0.5 0 Z M 3.3125 -1.75 C 3.3125 -2.796875 2.765625 -3.53125 1.765625 -3.53125 C 1.484375 -3.53125 1.203125 -3.515625 0.921875 -3.484375 L 0.921875 -3.3125 C 1.203125 -3.34375 1.484375 -3.359375 1.765625 -3.359375 C 2.5 -3.359375 2.9375 -2.5625 2.9375 -1.75 C 2.9375 -0.921875 2.5 -0.125 1.765625 -0.125 C 1.484375 -0.125 1.203125 -0.140625 0.921875 -0.171875 L 0.921875 0 C 1.203125 0.03125 1.484375 0.046875 1.765625 0.046875 C 2.765625 0.046875 3.3125 -0.6875 3.3125 -1.75 Z M 3.3125 -1.75 "
               style="stroke:none;" />
          </symbol>
          <symbol
             id="textext-b4c6422a-42"
             overflow="visible">
            <path
               id="path3987"
               d="M 4 0 L 3.828125 -3.484375 L 3.59375 -3.484375 L 2.15625 -0.40625 L 0.71875 -3.484375 L 0.46875 -3.484375 L 0.296875 0 L 0.46875 0 L 0.625 -2.984375 L 2.015625 0 L 2.15625 0 L 3.5625 -3.015625 L 3.703125 0 Z M 4 0 "
               style="stroke:none;" />
          </symbol>
          <symbol
             id="textext-b4c6422a-43"
             overflow="visible">
            <path
               id="path3990"
               d="M 1.6875 -1.6875 L 1.6875 -4.84375 L 0.390625 -4.78125 L 0.390625 -4.390625 C 0.8125 -4.390625 0.84375 -4.390625 0.84375 -4.109375 L 0.84375 -0.390625 L 0.390625 -0.390625 L 0.390625 0 C 0.421875 0 0.953125 -0.03125 1.25 -0.03125 C 1.578125 -0.03125 2.109375 0 2.109375 0 L 2.109375 -0.390625 L 1.640625 -0.390625 L 1.640625 -1.125 L 2.125 -1.46875 L 3 -0.515625 C 3.0625 -0.453125 3.0625 -0.4375 3.0625 -0.4375 C 3.0625 -0.390625 2.96875 -0.390625 2.921875 -0.390625 L 2.921875 0 C 3.21875 -0.015625 3.53125 -0.03125 3.828125 -0.03125 C 4.078125 -0.03125 4.328125 -0.015625 4.578125 0 L 4.578125 -0.390625 C 4.359375 -0.390625 4.21875 -0.390625 4.15625 -0.40625 C 4.109375 -0.421875 4.09375 -0.4375 4 -0.515625 L 2.734375 -1.890625 L 3.734375 -2.609375 C 3.828125 -2.671875 3.875 -2.703125 4.375 -2.703125 L 4.375 -3.09375 C 4.1875 -3.078125 4 -3.0625 3.8125 -3.0625 C 3.5 -3.0625 2.9375 -3.09375 2.90625 -3.09375 L 2.90625 -2.703125 C 3 -2.703125 3.015625 -2.6875 3.046875 -2.65625 C 3.03125 -2.640625 2.984375 -2.609375 2.96875 -2.59375 Z M 1.6875 -1.6875 "
               style="stroke:none;" />
          </symbol>
          <symbol
             id="textext-b4c6422a-44"
             overflow="visible">
            <path
               id="path3993"
               d="M 6.5625 -2.296875 C 6.734375 -2.296875 6.921875 -2.296875 6.921875 -2.5 C 6.921875 -2.6875 6.734375 -2.6875 6.5625 -2.6875 L 1.171875 -2.6875 C 1 -2.6875 0.828125 -2.6875 0.828125 -2.5 C 0.828125 -2.296875 1 -2.296875 1.171875 -2.296875 Z M 6.5625 -2.296875 "
               style="stroke:none;" />
          </symbol>
          <symbol
             id="textext-b4c6422a-45"
             overflow="visible">
            <path
               id="path3996"
               d="M 3.09375 0 L 3.09375 -0.328125 L 0.609375 -0.328125 L 1.90625 -1.765625 C 2.4375 -2.359375 3.03125 -2.96875 3.03125 -3.765625 C 3.03125 -4.4375 2.390625 -4.875 1.671875 -4.875 C 1.171875 -4.875 0.6875 -4.703125 0.3125 -4.375 L 0.3125 -4.15625 C 0.6875 -4.46875 1.171875 -4.640625 1.671875 -4.640625 C 2.1875 -4.640625 2.640625 -4.265625 2.640625 -3.765625 C 2.640625 -3.0625 2.1875 -2.453125 1.734375 -1.9375 L 0.25 -0.25 L 0.25 0 Z M 3.09375 0 "
               style="stroke:none;" />
          </symbol>
          <symbol
             id="textext-b4c6422a-46"
             overflow="visible">
            <path
               id="path3999"
               d="M 3.140625 0 L 3.140625 -4.875 L 2.734375 -4.875 L 2.734375 0 Z M 2.5625 -0.28125 L 2.5625 -0.515625 C 2.3125 -0.3125 2.015625 -0.171875 1.703125 -0.171875 C 1.03125 -0.171875 0.84375 -0.796875 0.84375 -1.5625 C 0.84375 -2.265625 1.09375 -2.96875 1.703125 -2.96875 C 2 -2.96875 2.28125 -2.90625 2.5625 -2.8125 L 2.5625 -3.03125 C 2.28125 -3.140625 1.984375 -3.1875 1.6875 -3.1875 C 0.8125 -3.1875 0.390625 -2.515625 0.390625 -1.5625 C 0.390625 -0.640625 0.75 0.0625 1.578125 0.0625 C 1.9375 0.0625 2.265625 -0.078125 2.5625 -0.28125 Z M 2.5625 -0.28125 "
               style="stroke:none;" />
          </symbol>
          <symbol
             id="textext-b4c6422a-47"
             overflow="visible">
            <path
               id="path4002"
               d="M 1.109375 0 L 1.109375 -4.875 L 0.703125 -4.875 L 0.703125 0 Z M 4.625 -2.4375 C 4.625 -3.90625 3.875 -4.9375 2.46875 -4.9375 C 2.078125 -4.9375 1.6875 -4.90625 1.296875 -4.875 L 1.296875 -4.640625 C 1.6875 -4.671875 2.078125 -4.703125 2.46875 -4.703125 C 3.5 -4.703125 4.109375 -3.59375 4.109375 -2.4375 C 4.109375 -1.296875 3.5 -0.1875 2.46875 -0.1875 C 2.078125 -0.1875 1.6875 -0.203125 1.296875 -0.234375 L 1.296875 0 C 1.6875 0.03125 2.078125 0.0625 2.46875 0.0625 C 3.875 0.0625 4.625 -0.96875 4.625 -2.4375 Z M 4.625 -2.4375 "
               style="stroke:none;" />
          </symbol>
          <symbol
             id="textext-b4c6422a-48"
             overflow="visible">
            <path
               id="path4005"
               d="M 5.609375 0 L 5.359375 -4.875 L 5.03125 -4.875 L 3.015625 -0.5625 L 1 -4.875 L 0.65625 -4.875 L 0.421875 0 L 0.65625 0 L 0.859375 -4.171875 L 2.8125 0 L 3.015625 0 L 4.96875 -4.203125 L 5.1875 0 Z M 5.609375 0 "
               style="stroke:none;" />
          </symbol>
          <symbol
             id="textext-b4c6422a-49"
             overflow="visible">
            <path
               id="path4008"
               d="M 2.203125 -3.625 C 2.203125 -3.625 2.21875 -3.640625 2.21875 -3.671875 C 2.21875 -3.6875 2.203125 -3.734375 2.125 -3.734375 C 2.03125 -3.734375 0.75 -2.9375 0.75 -1.25 C 0.75 0.4375 2.03125 1.25 2.125 1.25 C 2.203125 1.25 2.21875 1.203125 2.21875 1.171875 C 2.21875 1.140625 2.1875 1.125 2.171875 1.109375 C 1.296875 0.40625 1.125 -0.609375 1.125 -1.25 C 1.125 -2.46875 1.6875 -3.265625 2.203125 -3.625 Z M 2.203125 -3.625 "
               style="stroke:none;" />
          </symbol>
          <symbol
             id="textext-b4c6422a-50"
             overflow="visible">
            <path
               id="path4011"
               d="M 1.984375 -3.171875 C 1.984375 -3.3125 1.96875 -3.3125 1.796875 -3.3125 C 1.453125 -3 0.890625 -3 0.796875 -3 L 0.71875 -3 L 0.71875 -2.78125 L 0.796875 -2.78125 C 0.90625 -2.78125 1.234375 -2.796875 1.53125 -2.921875 L 1.53125 -0.421875 C 1.53125 -0.28125 1.53125 -0.21875 1 -0.21875 L 0.75 -0.21875 L 0.75 0 C 1.015625 -0.015625 1.46875 -0.015625 1.75 -0.015625 C 2.046875 -0.015625 2.484375 -0.015625 2.765625 0 L 2.765625 -0.21875 L 2.515625 -0.21875 C 1.984375 -0.21875 1.984375 -0.28125 1.984375 -0.421875 Z M 1.984375 -3.171875 "
               style="stroke:none;" />
          </symbol>
          <symbol
             id="textext-b4c6422a-51"
             overflow="visible">
            <path
               id="path4014"
               d="M 1.953125 -1.25 C 1.953125 -2.9375 0.671875 -3.734375 0.5625 -3.734375 C 0.484375 -3.734375 0.484375 -3.671875 0.484375 -3.671875 C 0.484375 -3.65625 0.484375 -3.640625 0.515625 -3.609375 C 1.265625 -3.015625 1.5625 -2.140625 1.5625 -1.25 C 1.5625 -0.796875 1.484375 -0.328125 1.3125 0.078125 C 1.078125 0.640625 0.75 0.921875 0.515625 1.125 C 0.5 1.125 0.484375 1.15625 0.484375 1.171875 C 0.484375 1.1875 0.484375 1.25 0.5625 1.25 C 0.671875 1.25 1.953125 0.453125 1.953125 -1.25 Z M 1.953125 -1.25 "
               style="stroke:none;" />
          </symbol>
        </g>
      </defs>
      <g
         id="textext-b4c6422a-52">
        <path
           id="path4017"
           transform="matrix(1,0,0,-1,226.75,125.3)"
           d="M -0.25 -0.2 L 278.75 -0.2 "
           style="fill:none;stroke-width:1;stroke-linecap:butt;stroke-linejoin:miter;stroke:rgb(0%,0%,0%);stroke-opacity:1;stroke-miterlimit:10;" />
        <path
           id="path4019"
           d="M 226.75 128.585938 L 505.222656 128.585938 L 505.222656 125.796875 L 226.75 125.796875 Z M 226.75 128.585938 "
           style=" stroke:none;fill-rule:nonzero;fill:rgb(87.5%,87.5%,87.5%);fill-opacity:1;" />
        <path
           id="path4021"
           d="M 226.75 152.496094 L 317.96875 152.496094 L 317.96875 128.585938 L 226.75 128.585938 Z M 226.75 152.496094 "
           style=" stroke:none;fill-rule:nonzero;fill:rgb(87.5%,87.5%,87.5%);fill-opacity:1;" />
        <g
           id="g4023"
           style="fill:rgb(0%,0%,0%);fill-opacity:1;">
          <use
             id="use4025"
             y="145.324"
             x="232.727"
             xlink:href="#textext-b4c6422a-0" />
          <use
             id="use4027"
             y="145.324"
             x="239.232578"
             xlink:href="#textext-b4c6422a-1" />
          <use
             id="use4029"
             y="145.324"
             x="242.071919"
             xlink:href="#textext-b4c6422a-2" />
          <use
             id="use4031"
             y="145.324"
             x="247.471648"
             xlink:href="#textext-b4c6422a-3" />
          <use
             id="use4033"
             y="145.324"
             x="252.074369"
             xlink:href="#textext-b4c6422a-4" />
        </g>
        <g
           id="g4035"
           style="fill:rgb(0%,0%,0%);fill-opacity:1;">
          <use
             id="use4037"
             y="145.324"
             x="260.612317"
             xlink:href="#textext-b4c6422a-5" />
          <use
             id="use4039"
             y="145.324"
             x="266.10171"
             xlink:href="#textext-b4c6422a-4" />
        </g>
        <g
           id="g4041"
           style="fill:rgb(0%,0%,0%);fill-opacity:1;">
          <use
             id="use4043"
             y="145.324"
             x="274.639658"
             xlink:href="#textext-b4c6422a-6" />
          <use
             id="use4045"
             y="145.324"
             x="281.175124"
             xlink:href="#textext-b4c6422a-7" />
          <use
             id="use4047"
             y="145.324"
             x="283.974614"
             xlink:href="#textext-b4c6422a-8" />
          <use
             id="use4049"
             y="145.324"
             x="291.566116"
             xlink:href="#textext-b4c6422a-4" />
          <use
             id="use4051"
             y="145.324"
             x="296.786518"
             xlink:href="#textext-b4c6422a-9" />
          <use
             id="use4053"
             y="145.324"
             x="300.044288"
             xlink:href="#textext-b4c6422a-10" />
        </g>
        <g
           id="g4055"
           style="fill:rgb(0%,0%,0%);fill-opacity:1;">
          <use
             id="use4057"
             y="145.363"
             x="302.6"
             xlink:href="#textext-b4c6422a-11" />
        </g>
        <g
           id="g4059"
           style="fill:rgb(0%,0%,0%);fill-opacity:1;">
          <use
             id="use4061"
             y="145.324"
             x="303.791"
             xlink:href="#textext-b4c6422a-12" />
          <use
             id="use4063"
             y="145.324"
             x="306.590491"
             xlink:href="#textext-b4c6422a-2" />
        </g>
        <path
           id="path4065"
           d="M 317.96875 152.496094 L 505.222656 152.496094 L 505.222656 128.585938 L 317.96875 128.585938 Z M 317.96875 152.496094 "
           style=" stroke:none;fill-rule:nonzero;fill:rgb(87.5%,87.5%,87.5%);fill-opacity:1;" />
        <g
           id="g4067"
           style="fill:rgb(0%,0%,0%);fill-opacity:1;">
          <use
             id="use4069"
             y="145.324"
             x="381.903"
             xlink:href="#textext-b4c6422a-13" />
          <use
             id="use4071"
             y="145.324"
             x="388.298989"
             xlink:href="#textext-b4c6422a-3" />
          <use
             id="use4073"
             y="145.324"
             x="392.90171"
             xlink:href="#textext-b4c6422a-7" />
          <use
             id="use4075"
             y="145.324"
             x="395.701201"
             xlink:href="#textext-b4c6422a-8" />
          <use
             id="use4077"
             y="145.324"
             x="403.292702"
             xlink:href="#textext-b4c6422a-4" />
          <use
             id="use4079"
             y="145.324"
             x="408.513105"
             xlink:href="#textext-b4c6422a-9" />
          <use
             id="use4081"
             y="145.324"
             x="411.770875"
             xlink:href="#textext-b4c6422a-10" />
        </g>
        <g
           id="g4083"
           style="fill:rgb(0%,0%,0%);fill-opacity:1;">
          <use
             id="use4085"
             y="145.363"
             x="414.326"
             xlink:href="#textext-b4c6422a-11" />
        </g>
        <g
           id="g4087"
           style="fill:rgb(0%,0%,0%);fill-opacity:1;">
          <use
             id="use4089"
             y="145.324"
             x="415.517"
             xlink:href="#textext-b4c6422a-12" />
          <use
             id="use4091"
             y="145.324"
             x="418.316491"
             xlink:href="#textext-b4c6422a-2" />
        </g>
        <g
           id="g4093"
           style="fill:rgb(0%,0%,0%);fill-opacity:1;">
          <use
             id="use4095"
             y="145.324"
             x="427.033"
             xlink:href="#textext-b4c6422a-14" />
        </g>
        <g
           id="g4097"
           style="fill:rgb(0%,0%,0%);fill-opacity:1;">
          <use
             id="use4099"
             y="145.324"
             x="435.336"
             xlink:href="#textext-b4c6422a-22" />
        </g>
        <path
           id="path4101"
           d="M 226.75 154.214844 L 505.222656 154.214844 L 505.222656 152.496094 L 226.75 152.496094 Z M 226.75 154.214844 "
           style=" stroke:none;fill-rule:nonzero;fill:rgb(87.5%,87.5%,87.5%);fill-opacity:1;" />
        <path
           id="path4103"
           transform="matrix(1,0,0,-1,226.75,154.462)"
           d="M -0.25 -0.038 L 278.75 -0.038 "
           style="fill:none;stroke-width:1;stroke-linecap:butt;stroke-linejoin:miter;stroke:rgb(0%,0%,0%);stroke-opacity:1;stroke-miterlimit:10;" />
        <path
           id="path4105"
           d="M 226.75 157.5 L 505.222656 157.5 L 505.222656 154.710938 L 226.75 154.710938 Z M 226.75 157.5 "
           style=" stroke:none;fill-rule:nonzero;fill:rgb(100%,100%,100%);fill-opacity:1;" />
        <g
           id="g4107"
           style="fill:rgb(0%,0%,0%);fill-opacity:1;">
          <use
             id="use4109"
             y="174.236"
             x="268.756"
             xlink:href="#textext-b4c6422a-23" />
        </g>
        <g
           id="g4111"
           style="fill:rgb(0%,0%,0%);fill-opacity:1;">
          <use
             id="use4113"
             y="169.792"
             x="363.169"
             xlink:href="#textext-b4c6422a-28" />
        </g>
        <g
           id="g4115"
           style="fill:rgb(0%,0%,0%);fill-opacity:1;">
          <use
             id="use4117"
             y="169.792"
             x="367.14"
             xlink:href="#textext-b4c6422a-33" />
        </g>
        <g
           id="g4119"
           style="fill:rgb(0%,0%,0%);fill-opacity:1;">
          <use
             id="use4121"
             y="169.792"
             x="371.757353"
             xlink:href="#textext-b4c6422a-34" />
        </g>
        <g
           id="g4123"
           style="fill:rgb(0%,0%,0%);fill-opacity:1;">
          <use
             id="use4125"
             y="169.792"
             x="376.159913"
             xlink:href="#textext-b4c6422a-35" />
        </g>
        <g
           id="g4127"
           style="fill:rgb(0%,0%,0%);fill-opacity:1;">
          <use
             id="use4129"
             y="170.788"
             x="383.755"
             xlink:href="#textext-b4c6422a-40" />
        </g>
        <g
           id="g4131"
           style="fill:rgb(0%,0%,0%);fill-opacity:1;">
          <use
             id="use4133"
             y="169.792"
             x="387.591"
             xlink:href="#textext-b4c6422a-36" />
        </g>
        <g
           id="g4135"
           style="fill:rgb(0%,0%,0%);fill-opacity:1;">
          <use
             id="use4137"
             y="170.876"
             x="392.317"
             xlink:href="#textext-b4c6422a-41" />
          <use
             id="use4139"
             y="170.876"
             x="395.923461"
             xlink:href="#textext-b4c6422a-42" />
        </g>
        <path
           id="path4141"
           transform="matrix(1,0,0,-1,363.169,171.745)"
           d="M 0.331 0.245 L 37.331 0.245 "
           style="fill:none;stroke-width:1;stroke-linecap:butt;stroke-linejoin:miter;stroke:rgb(0%,0%,0%);stroke-opacity:1;stroke-miterlimit:10;" />
        <g
           id="g4143"
           style="fill:rgb(0%,0%,0%);fill-opacity:1;">
          <use
             id="use4145"
             y="177.671"
             x="377.507"
             xlink:href="#textext-b4c6422a-29" />
        </g>
        <g
           id="g4147"
           style="fill:rgb(0%,0%,0%);fill-opacity:1;">
          <use
             id="use4149"
             y="177.671"
             x="381.478"
             xlink:href="#textext-b4c6422a-37" />
        </g>
        <g
           id="g4151"
           style="fill:rgb(0%,0%,0%);fill-opacity:1;">
          <use
             id="use4153"
             y="174.236"
             x="403.581"
             xlink:href="#textext-b4c6422a-15" />
          <use
             id="use4155"
             y="174.236"
             x="408.008379"
             xlink:href="#textext-b4c6422a-16" />
          <use
             id="use4157"
             y="174.236"
             x="412.989679"
             xlink:href="#textext-b4c6422a-17" />
        </g>
        <g
           id="g4159"
           style="fill:rgb(0%,0%,0%);fill-opacity:1;">
          <use
             id="use4161"
             y="174.236"
             x="418.58"
             xlink:href="#textext-b4c6422a-24" />
        </g>
        <g
           id="g4163"
           style="fill:rgb(0%,0%,0%);fill-opacity:1;">
          <use
             id="use4165"
             y="175.73"
             x="424.516"
             xlink:href="#textext-b4c6422a-43" />
        </g>
        <g
           id="g4167"
           style="fill:rgb(0%,0%,0%);fill-opacity:1;">
          <use
             id="use4169"
             y="174.236"
             x="431.436"
             xlink:href="#textext-b4c6422a-15" />
          <use
             id="use4171"
             y="174.236"
             x="435.863379"
             xlink:href="#textext-b4c6422a-16" />
          <use
             id="use4173"
             y="174.236"
             x="440.844679"
             xlink:href="#textext-b4c6422a-17" />
        </g>
        <g
           id="g4175"
           style="fill:rgb(0%,0%,0%);fill-opacity:1;">
          <use
             id="use4177"
             y="174.236"
             x="446.435"
             xlink:href="#textext-b4c6422a-24" />
        </g>
        <g
           id="g4179"
           style="fill:rgb(0%,0%,0%);fill-opacity:1;">
          <use
             id="use4181"
             y="175.73"
             x="452.372"
             xlink:href="#textext-b4c6422a-35" />
        </g>
        <path
           id="path4183"
           d="M 226.75 205.320312 L 317.96875 205.320312 L 317.96875 181.410156 L 226.75 181.410156 Z M 226.75 205.320312 "
           style=" stroke:none;fill-rule:nonzero;fill:rgb(94.999695%,94.999695%,94.999695%);fill-opacity:1;" />
        <g
           id="g4185"
           style="fill:rgb(0%,0%,0%);fill-opacity:1;">
          <use
             id="use4187"
             y="198.146"
             x="263.969"
             xlink:href="#textext-b4c6422a-25" />
        </g>
        <g
           id="g4189"
           style="fill:rgb(0%,0%,0%);fill-opacity:1;">
          <use
             id="use4191"
             y="199.641"
             x="271.09"
             xlink:href="#textext-b4c6422a-38" />
          <use
             id="use4193"
             y="199.641"
             x="276.014898"
             xlink:href="#textext-b4c6422a-39" />
        </g>
        <path
           id="path4195"
           d="M 317.96875 205.320312 L 505.222656 205.320312 L 505.222656 181.410156 L 317.96875 181.410156 Z M 317.96875 205.320312 "
           style=" stroke:none;fill-rule:nonzero;fill:rgb(94.999695%,94.999695%,94.999695%);fill-opacity:1;" />
        <g
           id="g4197"
           style="fill:rgb(0%,0%,0%);fill-opacity:1;">
          <use
             id="use4199"
             y="198.146"
             x="358.653"
             xlink:href="#textext-b4c6422a-44" />
        </g>
        <g
           id="g4201"
           style="fill:rgb(0%,0%,0%);fill-opacity:1;">
          <use
             id="use4203"
             y="193.702"
             x="367.597"
             xlink:href="#textext-b4c6422a-28" />
        </g>
        <g
           id="g4205"
           style="fill:rgb(0%,0%,0%);fill-opacity:1;">
          <use
             id="use4207"
             y="193.702"
             x="371.568"
             xlink:href="#textext-b4c6422a-33" />
        </g>
        <g
           id="g4209"
           style="fill:rgb(0%,0%,0%);fill-opacity:1;">
          <use
             id="use4211"
             y="193.702"
             x="376.178379"
             xlink:href="#textext-b4c6422a-34" />
        </g>
        <g
           id="g4213"
           style="fill:rgb(0%,0%,0%);fill-opacity:1;">
          <use
             id="use4215"
             y="193.702"
             x="380.587913"
             xlink:href="#textext-b4c6422a-35" />
        </g>
        <g
           id="g4217"
           style="fill:rgb(0%,0%,0%);fill-opacity:1;">
          <use
             id="use4219"
             y="194.698"
             x="388.183"
             xlink:href="#textext-b4c6422a-40" />
        </g>
        <g
           id="g4221"
           style="fill:rgb(0%,0%,0%);fill-opacity:1;">
          <use
             id="use4223"
             y="193.702"
             x="392.019"
             xlink:href="#textext-b4c6422a-36" />
        </g>
        <g
           id="g4225"
           style="fill:rgb(0%,0%,0%);fill-opacity:1;">
          <use
             id="use4227"
             y="194.787"
             x="396.744"
             xlink:href="#textext-b4c6422a-41" />
          <use
             id="use4229"
             y="194.787"
             x="400.350461"
             xlink:href="#textext-b4c6422a-42" />
        </g>
        <path
           id="path4231"
           transform="matrix(1,0,0,-1,367.597,195.656)"
           d="M -0.097 0.156 L 37.903 0.156 "
           style="fill:none;stroke-width:1;stroke-linecap:butt;stroke-linejoin:miter;stroke:rgb(0%,0%,0%);stroke-opacity:1;stroke-miterlimit:10;" />
        <g
           id="g4233"
           style="fill:rgb(0%,0%,0%);fill-opacity:1;">
          <use
             id="use4235"
             y="201.582"
             x="381.935"
             xlink:href="#textext-b4c6422a-29" />
        </g>
        <g
           id="g4237"
           style="fill:rgb(0%,0%,0%);fill-opacity:1;">
          <use
             id="use4239"
             y="201.582"
             x="385.906"
             xlink:href="#textext-b4c6422a-37" />
        </g>
        <g
           id="g4241"
           style="fill:rgb(0%,0%,0%);fill-opacity:1;">
          <use
             id="use4243"
             y="198.146"
             x="408.009"
             xlink:href="#textext-b4c6422a-17" />
          <use
             id="use4245"
             y="198.146"
             x="411.938249"
             xlink:href="#textext-b4c6422a-18" />
          <use
             id="use4247"
             y="198.146"
             x="414.70586"
             xlink:href="#textext-b4c6422a-19" />
        </g>
        <g
           id="g4249"
           style="fill:rgb(0%,0%,0%);fill-opacity:1;">
          <use
             id="use4251"
             y="198.146"
             x="421.901"
             xlink:href="#textext-b4c6422a-24" />
        </g>
        <g
           id="g4253"
           style="fill:rgb(0%,0%,0%);fill-opacity:1;">
          <use
             id="use4255"
             y="199.641"
             x="427.837"
             xlink:href="#textext-b4c6422a-43" />
        </g>
        <g
           id="g4257"
           style="fill:rgb(0%,0%,0%);fill-opacity:1;">
          <use
             id="use4259"
             y="198.146"
             x="434.757"
             xlink:href="#textext-b4c6422a-15" />
          <use
             id="use4261"
             y="198.146"
             x="439.184379"
             xlink:href="#textext-b4c6422a-16" />
          <use
             id="use4263"
             y="198.146"
             x="444.165679"
             xlink:href="#textext-b4c6422a-17" />
        </g>
        <g
           id="g4265"
           style="fill:rgb(0%,0%,0%);fill-opacity:1;">
          <use
             id="use4267"
             y="198.146"
             x="449.756"
             xlink:href="#textext-b4c6422a-24" />
        </g>
        <g
           id="g4269"
           style="fill:rgb(0%,0%,0%);fill-opacity:1;">
          <use
             id="use4271"
             y="199.641"
             x="455.692"
             xlink:href="#textext-b4c6422a-35" />
        </g>
        <g
           id="g4273"
           style="fill:rgb(0%,0%,0%);fill-opacity:1;">
          <use
             id="use4275"
             y="222.057"
             x="264.46"
             xlink:href="#textext-b4c6422a-26" />
        </g>
        <g
           id="g4277"
           style="fill:rgb(0%,0%,0%);fill-opacity:1;">
          <use
             id="use4279"
             y="223.551"
             x="272.708"
             xlink:href="#textext-b4c6422a-45" />
          <use
             id="use4281"
             y="223.551"
             x="276.055424"
             xlink:href="#textext-b4c6422a-46" />
        </g>
        <g
           id="g4283"
           style="fill:rgb(0%,0%,0%);fill-opacity:1;">
          <use
             id="use4285"
             y="222.057"
             x="358.099"
             xlink:href="#textext-b4c6422a-44" />
        </g>
        <g
           id="g4287"
           style="fill:rgb(0%,0%,0%);fill-opacity:1;">
          <use
             id="use4289"
             y="217.612"
             x="367.043"
             xlink:href="#textext-b4c6422a-28" />
        </g>
        <g
           id="g4291"
           style="fill:rgb(0%,0%,0%);fill-opacity:1;">
          <use
             id="use4293"
             y="217.612"
             x="371.015"
             xlink:href="#textext-b4c6422a-33" />
        </g>
        <g
           id="g4295"
           style="fill:rgb(0%,0%,0%);fill-opacity:1;">
          <use
             id="use4297"
             y="217.612"
             x="375.625379"
             xlink:href="#textext-b4c6422a-34" />
        </g>
        <g
           id="g4299"
           style="fill:rgb(0%,0%,0%);fill-opacity:1;">
          <use
             id="use4301"
             y="217.612"
             x="380.034913"
             xlink:href="#textext-b4c6422a-35" />
        </g>
        <g
           id="g4303"
           style="fill:rgb(0%,0%,0%);fill-opacity:1;">
          <use
             id="use4305"
             y="218.608"
             x="387.629"
             xlink:href="#textext-b4c6422a-40" />
        </g>
        <g
           id="g4307"
           style="fill:rgb(0%,0%,0%);fill-opacity:1;">
          <use
             id="use4309"
             y="217.612"
             x="391.466"
             xlink:href="#textext-b4c6422a-36" />
        </g>
        <g
           id="g4311"
           style="fill:rgb(0%,0%,0%);fill-opacity:1;">
          <use
             id="use4313"
             y="218.697"
             x="396.191"
             xlink:href="#textext-b4c6422a-41" />
          <use
             id="use4315"
             y="218.697"
             x="399.797461"
             xlink:href="#textext-b4c6422a-42" />
        </g>
        <path
           id="path4317"
           transform="matrix(1,0,0,-1,367.043,219.566)"
           d="M 0.457 0.066 L 37.457 0.066 "
           style="fill:none;stroke-width:1;stroke-linecap:butt;stroke-linejoin:miter;stroke:rgb(0%,0%,0%);stroke-opacity:1;stroke-miterlimit:10;" />
        <g
           id="g4319"
           style="fill:rgb(0%,0%,0%);fill-opacity:1;">
          <use
             id="use4321"
             y="225.492"
             x="381.381"
             xlink:href="#textext-b4c6422a-29" />
        </g>
        <g
           id="g4323"
           style="fill:rgb(0%,0%,0%);fill-opacity:1;">
          <use
             id="use4325"
             y="225.492"
             x="385.352"
             xlink:href="#textext-b4c6422a-37" />
        </g>
        <g
           id="g4327"
           style="fill:rgb(0%,0%,0%);fill-opacity:1;">
          <use
             id="use4329"
             y="222.057"
             x="407.455"
             xlink:href="#textext-b4c6422a-15" />
          <use
             id="use4331"
             y="222.057"
             x="411.882379"
             xlink:href="#textext-b4c6422a-16" />
          <use
             id="use4333"
             y="222.057"
             x="416.863679"
             xlink:href="#textext-b4c6422a-17" />
        </g>
        <g
           id="g4335"
           style="fill:rgb(0%,0%,0%);fill-opacity:1;">
          <use
             id="use4337"
             y="222.057"
             x="422.455"
             xlink:href="#textext-b4c6422a-24" />
        </g>
        <g
           id="g4339"
           style="fill:rgb(0%,0%,0%);fill-opacity:1;">
          <use
             id="use4341"
             y="223.551"
             x="428.391"
             xlink:href="#textext-b4c6422a-43" />
        </g>
        <g
           id="g4343"
           style="fill:rgb(0%,0%,0%);fill-opacity:1;">
          <use
             id="use4345"
             y="222.057"
             x="435.311"
             xlink:href="#textext-b4c6422a-15" />
          <use
             id="use4347"
             y="222.057"
             x="439.738379"
             xlink:href="#textext-b4c6422a-16" />
          <use
             id="use4349"
             y="222.057"
             x="444.719679"
             xlink:href="#textext-b4c6422a-17" />
        </g>
        <g
           id="g4351"
           style="fill:rgb(0%,0%,0%);fill-opacity:1;">
          <use
             id="use4353"
             y="222.057"
             x="450.31"
             xlink:href="#textext-b4c6422a-24" />
        </g>
        <g
           id="g4355"
           style="fill:rgb(0%,0%,0%);fill-opacity:1;">
          <use
             id="use4357"
             y="223.551"
             x="456.246"
             xlink:href="#textext-b4c6422a-35" />
        </g>
        <path
           id="path4359"
           d="M 226.75 253.140625 L 317.96875 253.140625 L 317.96875 229.230469 L 226.75 229.230469 Z M 226.75 253.140625 "
           style=" stroke:none;fill-rule:nonzero;fill:rgb(94.999695%,94.999695%,94.999695%);fill-opacity:1;" />
        <g
           id="g4361"
           style="fill:rgb(0%,0%,0%);fill-opacity:1;">
          <use
             id="use4363"
             y="245.967"
             x="265.523"
             xlink:href="#textext-b4c6422a-26" />
        </g>
        <g
           id="g4365"
           style="fill:rgb(0%,0%,0%);fill-opacity:1;">
          <use
             id="use4367"
             y="247.461"
             x="273.771"
             xlink:href="#textext-b4c6422a-38" />
        </g>
        <path
           id="path4369"
           d="M 317.96875 253.140625 L 505.222656 253.140625 L 505.222656 229.230469 L 317.96875 229.230469 Z M 317.96875 253.140625 "
           style=" stroke:none;fill-rule:nonzero;fill:rgb(94.999695%,94.999695%,94.999695%);fill-opacity:1;" />
        <g
           id="g4371"
           style="fill:rgb(0%,0%,0%);fill-opacity:1;">
          <use
             id="use4373"
             y="240.439"
             x="362.731"
             xlink:href="#textext-b4c6422a-28" />
        </g>
        <g
           id="g4375"
           style="fill:rgb(0%,0%,0%);fill-opacity:1;">
          <use
             id="use4377"
             y="240.439"
             x="366.702"
             xlink:href="#textext-b4c6422a-33" />
        </g>
        <g
           id="g4379"
           style="fill:rgb(0%,0%,0%);fill-opacity:1;">
          <use
             id="use4381"
             y="240.439"
             x="371.319353"
             xlink:href="#textext-b4c6422a-34" />
        </g>
        <g
           id="g4383"
           style="fill:rgb(0%,0%,0%);fill-opacity:1;">
          <use
             id="use4385"
             y="240.439"
             x="375.721913"
             xlink:href="#textext-b4c6422a-35" />
        </g>
        <g
           id="g4387"
           style="fill:rgb(0%,0%,0%);fill-opacity:1;">
          <use
             id="use4389"
             y="241.435"
             x="383.317"
             xlink:href="#textext-b4c6422a-40" />
        </g>
        <g
           id="g4391"
           style="fill:rgb(0%,0%,0%);fill-opacity:1;">
          <use
             id="use4393"
             y="240.439"
             x="387.153"
             xlink:href="#textext-b4c6422a-36" />
        </g>
        <g
           id="g4395"
           style="fill:rgb(0%,0%,0%);fill-opacity:1;">
          <use
             id="use4397"
             y="236.791"
             x="391.878"
             xlink:href="#textext-b4c6422a-49" />
          <use
             id="use4399"
             y="236.791"
             x="394.57637"
             xlink:href="#textext-b4c6422a-50" />
          <use
             id="use4401"
             y="236.791"
             x="397.966643"
             xlink:href="#textext-b4c6422a-51" />
        </g>
        <g
           id="g4403"
           style="fill:rgb(0%,0%,0%);fill-opacity:1;">
          <use
             id="use4405"
             y="242.879"
             x="391.878"
             xlink:href="#textext-b4c6422a-41" />
          <use
             id="use4407"
             y="242.879"
             x="395.484461"
             xlink:href="#textext-b4c6422a-42" />
        </g>
        <path
           id="path4409"
           transform="matrix(1,0,0,-1,362.731,243.476)"
           d="M -0.231 -0.024 L 38.769 -0.024 "
           style="fill:none;stroke-width:1;stroke-linecap:butt;stroke-linejoin:miter;stroke:rgb(0%,0%,0%);stroke-opacity:1;stroke-miterlimit:10;" />
        <g
           id="g4411"
           style="fill:rgb(0%,0%,0%);fill-opacity:1;">
          <use
             id="use4413"
             y="249.402"
             x="377.507"
             xlink:href="#textext-b4c6422a-29" />
        </g>
        <g
           id="g4415"
           style="fill:rgb(0%,0%,0%);fill-opacity:1;">
          <use
             id="use4417"
             y="249.402"
             x="381.478"
             xlink:href="#textext-b4c6422a-37" />
        </g>
        <g
           id="g4419"
           style="fill:rgb(0%,0%,0%);fill-opacity:1;">
          <use
             id="use4421"
             y="245.967"
             x="404.019"
             xlink:href="#textext-b4c6422a-15" />
          <use
             id="use4423"
             y="245.967"
             x="408.446379"
             xlink:href="#textext-b4c6422a-16" />
          <use
             id="use4425"
             y="245.967"
             x="413.427679"
             xlink:href="#textext-b4c6422a-17" />
        </g>
        <g
           id="g4427"
           style="fill:rgb(0%,0%,0%);fill-opacity:1;">
          <use
             id="use4429"
             y="245.967"
             x="419.018"
             xlink:href="#textext-b4c6422a-24" />
        </g>
        <g
           id="g4431"
           style="fill:rgb(0%,0%,0%);fill-opacity:1;">
          <use
             id="use4433"
             y="247.461"
             x="424.954"
             xlink:href="#textext-b4c6422a-43" />
        </g>
        <g
           id="g4435"
           style="fill:rgb(0%,0%,0%);fill-opacity:1;">
          <use
             id="use4437"
             y="245.967"
             x="431.874"
             xlink:href="#textext-b4c6422a-15" />
          <use
             id="use4439"
             y="245.967"
             x="436.301379"
             xlink:href="#textext-b4c6422a-16" />
          <use
             id="use4441"
             y="245.967"
             x="441.282679"
             xlink:href="#textext-b4c6422a-17" />
        </g>
        <g
           id="g4443"
           style="fill:rgb(0%,0%,0%);fill-opacity:1;">
          <use
             id="use4445"
             y="245.967"
             x="446.874"
             xlink:href="#textext-b4c6422a-24" />
        </g>
        <g
           id="g4447"
           style="fill:rgb(0%,0%,0%);fill-opacity:1;">
          <use
             id="use4449"
             y="247.461"
             x="452.81"
             xlink:href="#textext-b4c6422a-35" />
        </g>
        <g
           id="g4451"
           style="fill:rgb(0%,0%,0%);fill-opacity:1;">
          <use
             id="use4453"
             y="269.877"
             x="266.087"
             xlink:href="#textext-b4c6422a-25" />
        </g>
        <g
           id="g4455"
           style="fill:rgb(0%,0%,0%);fill-opacity:1;">
          <use
             id="use4457"
             y="271.372"
             x="273.207"
             xlink:href="#textext-b4c6422a-38" />
        </g>
        <g
           id="g4459"
           style="fill:rgb(0%,0%,0%);fill-opacity:1;">
          <use
             id="use4461"
             y="269.877"
             x="323.945"
             xlink:href="#textext-b4c6422a-44" />
        </g>
        <g
           id="g4463"
           style="fill:rgb(0%,0%,0%);fill-opacity:1;">
          <use
             id="use4465"
             y="265.433"
             x="332.889"
             xlink:href="#textext-b4c6422a-28" />
        </g>
        <g
           id="g4467"
           style="fill:rgb(0%,0%,0%);fill-opacity:1;">
          <use
             id="use4469"
             y="265.433"
             x="336.861"
             xlink:href="#textext-b4c6422a-33" />
        </g>
        <g
           id="g4471"
           style="fill:rgb(0%,0%,0%);fill-opacity:1;">
          <use
             id="use4473"
             y="265.433"
             x="341.471379"
             xlink:href="#textext-b4c6422a-34" />
        </g>
        <g
           id="g4475"
           style="fill:rgb(0%,0%,0%);fill-opacity:1;">
          <use
             id="use4477"
             y="265.433"
             x="345.880913"
             xlink:href="#textext-b4c6422a-35" />
        </g>
        <g
           id="g4479"
           style="fill:rgb(0%,0%,0%);fill-opacity:1;">
          <use
             id="use4481"
             y="266.429"
             x="353.475"
             xlink:href="#textext-b4c6422a-40" />
        </g>
        <path
           id="path4483"
           transform="matrix(1,0,0,-1,332.889,267.387)"
           d="M -0.389 -0.113 L 24.611 -0.113 "
           style="fill:none;stroke-width:1;stroke-linecap:butt;stroke-linejoin:miter;stroke:rgb(0%,0%,0%);stroke-opacity:1;stroke-miterlimit:10;" />
        <g
           id="g4485"
           style="fill:rgb(0%,0%,0%);fill-opacity:1;">
          <use
             id="use4487"
             y="273.313"
             x="340.66"
             xlink:href="#textext-b4c6422a-29" />
        </g>
        <g
           id="g4489"
           style="fill:rgb(0%,0%,0%);fill-opacity:1;">
          <use
             id="use4491"
             y="273.313"
             x="344.632"
             xlink:href="#textext-b4c6422a-37" />
        </g>
        <g
           id="g4493"
           style="fill:rgb(0%,0%,0%);fill-opacity:1;">
          <use
             id="use4495"
             y="269.877"
             x="358.507"
             xlink:href="#textext-b4c6422a-20" />
        </g>
        <g
           id="g4497"
           style="fill:rgb(0%,0%,0%);fill-opacity:1;">
          <use
             id="use4499"
             y="269.877"
             x="362.382"
             xlink:href="#textext-b4c6422a-27" />
        </g>
        <g
           id="g4501"
           style="fill:rgb(0%,0%,0%);fill-opacity:1;">
          <use
             id="use4503"
             y="264.702"
             x="368.193"
             xlink:href="#textext-b4c6422a-30" />
          <use
             id="use4505"
             y="264.702"
             x="371.306104"
             xlink:href="#textext-b4c6422a-31" />
          <use
             id="use4507"
             y="264.702"
             x="375.277683"
             xlink:href="#textext-b4c6422a-32" />
        </g>
        <g
           id="g4509"
           style="fill:rgb(0%,0%,0%);fill-opacity:1;">
          <use
             id="use4511"
             y="272.921"
             x="368.193"
             xlink:href="#textext-b4c6422a-47" />
          <use
             id="use4513"
             y="272.921"
             x="373.242031"
             xlink:href="#textext-b4c6422a-48" />
        </g>
        <g
           id="g4515"
           style="fill:rgb(0%,0%,0%);fill-opacity:1;">
          <use
             id="use4517"
             y="269.877"
             x="381.426"
             xlink:href="#textext-b4c6422a-17" />
          <use
             id="use4519"
             y="269.877"
             x="385.355249"
             xlink:href="#textext-b4c6422a-18" />
          <use
             id="use4521"
             y="269.877"
             x="388.12286"
             xlink:href="#textext-b4c6422a-19" />
        </g>
        <g
           id="g4523"
           style="fill:rgb(0%,0%,0%);fill-opacity:1;">
          <use
             id="use4525"
             y="269.877"
             x="395.318"
             xlink:href="#textext-b4c6422a-24" />
        </g>
        <g
           id="g4527"
           style="fill:rgb(0%,0%,0%);fill-opacity:1;">
          <use
             id="use4529"
             y="271.372"
             x="401.254"
             xlink:href="#textext-b4c6422a-43" />
        </g>
        <g
           id="g4531"
           style="fill:rgb(0%,0%,0%);fill-opacity:1;">
          <use
             id="use4533"
             y="269.877"
             x="408.728"
             xlink:href="#textext-b4c6422a-44" />
        </g>
        <g
           id="g4535"
           style="fill:rgb(0%,0%,0%);fill-opacity:1;">
          <use
             id="use4537"
             y="269.877"
             x="418.69"
             xlink:href="#textext-b4c6422a-27" />
        </g>
        <g
           id="g4539"
           style="fill:rgb(0%,0%,0%);fill-opacity:1;">
          <use
             id="use4541"
             y="264.702"
             x="424.502"
             xlink:href="#textext-b4c6422a-30" />
          <use
             id="use4543"
             y="264.702"
             x="427.615104"
             xlink:href="#textext-b4c6422a-29" />
          <use
             id="use4545"
             y="264.702"
             x="431.586683"
             xlink:href="#textext-b4c6422a-32" />
        </g>
        <g
           id="g4547"
           style="fill:rgb(0%,0%,0%);fill-opacity:1;">
          <use
             id="use4549"
             y="272.921"
             x="424.502"
             xlink:href="#textext-b4c6422a-47" />
          <use
             id="use4551"
             y="272.921"
             x="429.551031"
             xlink:href="#textext-b4c6422a-48" />
        </g>
        <g
           id="g4553"
           style="fill:rgb(0%,0%,0%);fill-opacity:1;">
          <use
             id="use4555"
             y="269.877"
             x="437.735"
             xlink:href="#textext-b4c6422a-15" />
          <use
             id="use4557"
             y="269.877"
             x="442.162379"
             xlink:href="#textext-b4c6422a-16" />
          <use
             id="use4559"
             y="269.877"
             x="447.143679"
             xlink:href="#textext-b4c6422a-17" />
        </g>
        <g
           id="g4561"
           style="fill:rgb(0%,0%,0%);fill-opacity:1;">
          <use
             id="use4563"
             y="269.877"
             x="452.734"
             xlink:href="#textext-b4c6422a-24" />
        </g>
        <g
           id="g4565"
           style="fill:rgb(0%,0%,0%);fill-opacity:1;">
          <use
             id="use4567"
             y="271.372"
             x="458.67"
             xlink:href="#textext-b4c6422a-43" />
        </g>
        <g
           id="g4569"
           style="fill:rgb(0%,0%,0%);fill-opacity:1;">
          <use
             id="use4571"
             y="269.877"
             x="463.93"
             xlink:href="#textext-b4c6422a-21" />
        </g>
        <g
           id="g4573"
           style="fill:rgb(0%,0%,0%);fill-opacity:1;">
          <use
             id="use4575"
             y="269.877"
             x="469.468209"
             xlink:href="#textext-b4c6422a-15" />
          <use
             id="use4577"
             y="269.877"
             x="473.895589"
             xlink:href="#textext-b4c6422a-16" />
          <use
             id="use4579"
             y="269.877"
             x="478.876889"
             xlink:href="#textext-b4c6422a-17" />
        </g>
        <g
           id="g4581"
           style="fill:rgb(0%,0%,0%);fill-opacity:1;">
          <use
             id="use4583"
             y="269.877"
             x="484.464"
             xlink:href="#textext-b4c6422a-24" />
        </g>
        <g
           id="g4585"
           style="fill:rgb(0%,0%,0%);fill-opacity:1;">
          <use
             id="use4587"
             y="271.372"
             x="490.4"
             xlink:href="#textext-b4c6422a-35" />
        </g>
        <path
           id="path4589"
           d="M 226.75 278.765625 L 505.222656 278.765625 L 505.222656 277.050781 L 226.75 277.050781 Z M 226.75 278.765625 "
           style=" stroke:none;fill-rule:nonzero;fill:rgb(94.999695%,94.999695%,94.999695%);fill-opacity:1;" />
        <path
           id="path4591"
           transform="matrix(1,0,0,-1,226.75,279.165)"
           d="M -0.25 -0.335 L 278.75 -0.335 "
           style="fill:none;stroke-width:1;stroke-linecap:butt;stroke-linejoin:miter;stroke:rgb(0%,0%,0%);stroke-opacity:1;stroke-miterlimit:10;" />
      </g>
    </g>
  </g>
</svg>
